<svg width="22" height="22" viewBox="0 0 22 22" fill="none" xmlns="http://www.w3.org/2000/svg">
<g clip-path="url(#clip0_14491_90589)">
<rect width="22" height="22" rx="11" fill="#2B2B2B"/>
<path d="M16.477 9.92384C16.7671 9.05309 16.6672 8.09923 16.2033 7.30721C15.5056 6.09241 14.103 5.46742 12.7331 5.76153C12.1237 5.07501 11.2482 4.68459 10.3303 4.69018C8.93005 4.68699 7.68767 5.5885 7.25689 6.92079C6.35738 7.10501 5.58094 7.66806 5.12659 8.46607C4.42368 9.67768 4.58392 11.205 5.523 12.244C5.23288 13.1147 5.33278 14.0686 5.79673 14.8606C6.49444 16.0754 7.89706 16.7004 9.26691 16.4063C9.87592 17.0928 10.7519 17.4832 11.6698 17.4772C13.0708 17.4808 14.3136 16.5785 14.7443 15.245C15.6438 15.0608 16.4203 14.4977 16.8746 13.6997C17.5767 12.4881 17.4161 10.962 16.4774 9.92304L16.477 9.92384ZM11.6706 16.6416C11.1099 16.6424 10.5668 16.4462 10.1365 16.087C10.156 16.0766 10.19 16.0578 10.212 16.0442L12.7583 14.5737C12.8886 14.4997 12.9685 14.3611 12.9677 14.2112V10.6216L14.0438 11.2429C14.0554 11.2485 14.063 11.2597 14.0646 11.2725V14.2452C14.063 15.5671 12.9925 16.6388 11.6706 16.6416ZM6.52201 14.4426C6.24109 13.9575 6.13999 13.3888 6.2363 12.837C6.25508 12.8482 6.28824 12.8685 6.31182 12.8821L8.85812 14.3527C8.98719 14.4282 9.14703 14.4282 9.27651 14.3527L12.385 12.5576V13.8004C12.3858 13.8132 12.3799 13.8256 12.3699 13.8336L9.79599 15.3197C8.64952 15.9799 7.18496 15.5875 6.52201 14.4426ZM5.85187 8.88446C6.1316 8.39854 6.57316 8.0269 7.09905 7.83389C7.09905 7.85587 7.09785 7.89463 7.09785 7.92181V10.8633C7.09705 11.0128 7.17697 11.1514 7.30684 11.2254L10.4154 13.02L9.33924 13.6414C9.32845 13.6486 9.31487 13.6498 9.30288 13.6446L6.72861 12.1572C5.58454 11.4947 5.19252 10.0305 5.85187 8.88446ZM14.6936 10.942L11.585 9.147L12.6612 8.52601C12.672 8.51882 12.6856 8.51762 12.6975 8.52282L15.2718 10.009C16.4179 10.6711 16.8107 12.1373 16.1485 13.2833C15.8684 13.7685 15.4273 14.1401 14.9018 14.3335V11.3041C14.903 11.1546 14.8231 11.0164 14.6936 10.942ZM15.7645 9.33002C15.7457 9.31843 15.7126 9.29845 15.689 9.28487L13.1427 7.81431C13.0136 7.73879 12.8538 7.73879 12.7243 7.81431L9.61577 9.60935V8.36657C9.61497 8.35378 9.62097 8.34139 9.63096 8.3334L12.2048 6.84846C13.3513 6.18711 14.8171 6.58072 15.478 7.7276C15.7573 8.21192 15.8584 8.77896 15.7637 9.33002H15.7645ZM9.03075 11.545L7.95421 10.9237C7.94262 10.9181 7.93502 10.9069 7.93343 10.8941V7.92141C7.93423 6.59791 9.00797 5.52536 10.3315 5.52616C10.8913 5.52616 11.4332 5.72277 11.8636 6.08082C11.844 6.09121 11.8104 6.10999 11.788 6.12357L9.24174 7.59413C9.11147 7.66806 9.03155 7.80632 9.03235 7.95617L9.03075 11.545ZM9.61537 10.2847L11 9.48507L12.3846 10.2843V11.8831L11 12.6823L9.61537 11.8831V10.2847Z" fill="#FBF8F1"/>
</g>
<defs>
<clipPath id="clip0_14491_90589">
<rect width="22" height="22" rx="4.4" fill="white"/>
</clipPath>
</defs>
</svg>
