<svg width="22" height="22" viewBox="0 0 22 22" fill="none" xmlns="http://www.w3.org/2000/svg">
<rect width="22" height="22" rx="11" fill="white"/>
<g clip-path="url(#clip0_14491_92220)">
<path d="M8.07991 16.969C10.8674 16.969 12.6804 15.4927 12.6804 13.2717C12.6804 11.5494 11.5777 10.455 9.60604 10.0017L8.34018 9.62205C7.22972 9.37276 6.58157 9.07342 6.73428 8.3087C6.86132 7.67252 7.2414 7.31338 8.12523 7.31338C10.9349 7.31338 11.9759 8.3087 11.9759 8.3087V5.91478C11.9759 5.91478 10.9624 5 8.12523 5C5.45108 5 4 6.37599 4 8.50625C4 10.2286 5.0056 11.2302 7.04521 11.7061C7.18795 11.7418 7.26091 11.7601 7.26408 11.7611C7.57432 11.8571 7.99296 11.984 8.51999 12.1417C9.56245 12.391 9.83053 12.6556 9.83053 13.4487C9.83053 14.1739 9.07705 14.5862 8.07991 14.5862C5.20743 14.5862 4 13.133 4 13.133V15.7853C4 15.7853 4.75507 16.969 8.07991 16.969Z" fill="url(#paint0_linear_14491_92220)"/>
<path d="M16.7006 16.7896C17.6873 16.7896 18.4221 16.0758 18.4221 15.1101C18.4221 14.1233 17.7083 13.4305 16.7006 13.4305C15.7138 13.4305 15 14.1233 15 15.1101C15 16.0968 15.7138 16.7896 16.7006 16.7896Z" fill="#E80000"/>
</g>
<defs>
<linearGradient id="paint0_linear_14491_92220" x1="438.018" y1="5" x2="438.018" y2="1201.9" gradientUnits="userSpaceOnUse">
<stop stop-color="#9D39FF"/>
<stop offset="1" stop-color="#A380FF"/>
</linearGradient>
<clipPath id="clip0_14491_92220">
<rect width="14.4225" height="12" fill="white" transform="translate(4 5)"/>
</clipPath>
</defs>
</svg>
