<svg width="22" height="22" viewBox="0 0 22 22" fill="none" xmlns="http://www.w3.org/2000/svg">
<g clip-path="url(#clip0_14491_90572)">
<path d="M17.6 0H4.4C1.96995 0 0 1.96995 0 4.4V17.6C0 20.0301 1.96995 22 4.4 22H17.6C20.0301 22 22 20.0301 22 17.6V4.4C22 1.96995 20.0301 0 17.6 0Z" fill="black"/>
<mask id="mask0_14491_90572" style="mask-type:luminance" maskUnits="userSpaceOnUse" x="4" y="3" width="14" height="15">
<path d="M17.8801 3.38776H4.125V17.4694H17.8801V3.38776Z" fill="white"/>
</mask>
<g mask="url(#mask0_14491_90572)">
<path fill-rule="evenodd" clip-rule="evenodd" d="M15.5538 8.45425C15.5538 5.65618 13.0131 3.38776 9.87883 3.38776C8.79183 3.38776 7.91128 5.65618 7.91128 8.45425C7.91128 9.15418 7.9662 9.82133 8.0663 10.4281H6.13951L4.125 17.4685H9.87971V13.5216C13.0131 13.5216 15.5529 11.2523 15.5529 8.45513L15.5538 8.45425ZM9.87883 4.31572C10.4476 4.31572 10.9082 6.16894 10.9082 8.45425C10.9082 10.7395 10.4476 12.5927 9.87883 12.5927C9.31007 12.5927 8.84942 10.7395 8.84942 8.45425C8.84942 6.16894 9.31007 4.31572 9.87883 4.31572Z" fill="white"/>
<path fill-rule="evenodd" clip-rule="evenodd" d="M15.6642 13.5216H9.88477L12.1012 17.4694H17.8798L15.6642 13.5216Z" fill="white"/>
</g>
</g>
<defs>
<clipPath id="clip0_14491_90572">
<rect width="22" height="22" fill="white"/>
</clipPath>
</defs>
</svg>
