<svg xmlns="http://www.w3.org/2000/svg" width="20" height="20" viewBox="0 0 20 20" fill="none">
    <path d="M15.2562 10.2478C15.2484 8.81393 15.8949 7.73169 17.2034 6.93467C16.4713 5.88369 15.3652 5.30546 13.9047 5.19216C12.5222 5.08279 11.0111 6.00091 10.4581 6.00091C9.8739 6.00091 8.53417 5.23126 7.48263 5.23126C5.30947 5.2664 3 6.96985 3 10.4353C3 11.459 3.18694 12.5164 3.56082 13.6078C4.05932 15.0416 5.8586 18.5579 7.73578 18.4993C8.71722 18.4759 9.41043 17.7999 10.6879 17.7999C11.9263 17.7999 12.5689 18.4993 13.6633 18.4993C15.556 18.4719 17.184 15.2761 17.6591 13.8383C15.1198 12.6388 15.2562 10.322 15.2562 10.2478ZM13.0518 3.83255C14.1151 2.56669 14.0177 1.41414 13.9865 1C13.0479 1.0547 11.9614 1.64074 11.3421 2.36353C10.6606 3.13711 10.2595 4.09431 10.3451 5.17263C11.3616 5.25079 12.2885 4.72726 13.0518 3.83255Z" fill="inherit"/>
</svg>
