<svg width="20" height="20" viewBox="0 0 20 20" fill="none" xmlns="http://www.w3.org/2000/svg">
    <path d="M1.66675 10.0002C1.66675 7.05226 1.66675 5.57831 2.54408 4.59425C2.6844 4.43685 2.83906 4.29129 3.00629 4.15922C4.05186 3.3335 5.61793 3.3335 8.75008 3.3335H11.2501C14.3822 3.3335 15.9483 3.3335 16.9939 4.15922C17.1611 4.29129 17.3158 4.43685 17.4561 4.59425C18.3334 5.57831 18.3334 7.05226 18.3334 10.0002C18.3334 12.9481 18.3334 14.422 17.4561 15.4061C17.3158 15.5635 17.1611 15.709 16.9939 15.8411C15.9483 16.6668 14.3822 16.6668 11.2501 16.6668H8.75008C5.61793 16.6668 4.05186 16.6668 3.00629 15.8411C2.83906 15.709 2.6844 15.5635 2.54408 15.4061C1.66675 14.422 1.66675 12.9481 1.66675 10.0002Z" stroke="currentColor" stroke-width="1.5" stroke-linecap="round" stroke-linejoin="round"/>
    <path d="M8.33325 13.3335H9.58325" stroke="currentColor" stroke-width="1.5" stroke-miterlimit="10" stroke-linecap="round" stroke-linejoin="round"/>
    <path d="M12.0833 13.3335L14.9999 13.3335" stroke="currentColor" stroke-width="1.5" stroke-miterlimit="10" stroke-linecap="round" stroke-linejoin="round"/>
    <path d="M1.66675 7.5H18.3334" stroke="currentColor" stroke-width="1.5" stroke-linejoin="round"/>
</svg>
