<svg xmlns="http://www.w3.org/2000/svg" width="18" height="18" viewBox="0 0 18 18" fill="none">
    <path d="M6 7.5H12M6 10.5H9M15.75 9C15.75 12.7279 12.7279 15.75 9 15.75C8.13226 15.75 7.30276 15.5863 6.54072 15.288C6.25432 15.1759 5.94448 15.1278 5.6412 15.1789L2.76957 15.6625C2.5153 15.7053 2.29468 15.4847 2.3375 15.2304L2.8211 12.3588C2.87218 12.0555 2.8241 11.7457 2.71201 11.4593C2.41374 10.6972 2.25 9.86774 2.25 9C2.25 5.27208 5.27208 2.25 9 2.25C12.7279 2.25 15.75 5.27208 15.75 9Z" stroke="inherit" stroke-width="1.4" stroke-linecap="round"/>
</svg>