<svg xmlns="http://www.w3.org/2000/svg" width="16" height="16" viewBox="0 0 16 16" fill="none">
    <path d="M12.5951 12.0238L13.2173 12.0294V12.0294L12.5951 12.0238ZM2.66675 3.37782C2.3231 3.37782 2.04453 3.6564 2.04453 4.00004C2.04453 4.34368 2.3231 4.62226 2.66675 4.62226V3.37782ZM13.3334 4.62226C13.6771 4.62226 13.9556 4.34368 13.9556 4.00004C13.9556 3.6564 13.6771 3.37782 13.3334 3.37782V4.62226ZM7.28897 6.66671C7.28897 6.32306 7.01039 6.04449 6.66675 6.04449C6.3231 6.04449 6.04453 6.32306 6.04453 6.66671H7.28897ZM6.04453 12C6.04453 12.3437 6.3231 12.6223 6.66675 12.6223C7.01039 12.6223 7.28897 12.3437 7.28897 12H6.04453ZM9.95564 6.66671C9.95564 6.32306 9.67706 6.04449 9.33342 6.04449C8.98977 6.04449 8.71119 6.32306 8.71119 6.66671H9.95564ZM8.71119 12C8.71119 12.3437 8.98977 12.6223 9.33342 12.6223C9.67706 12.6223 9.95564 12.3437 9.95564 12H8.71119ZM12.6667 4.00004L12.0446 3.99449L11.9729 12.0183L12.5951 12.0238L13.2173 12.0294L13.2889 4.0056L12.6667 4.00004ZM9.92855 14.6667V14.0445H6.00008V14.6667V15.2889H9.92855V14.6667ZM3.33341 4.00004H2.71119V12H3.33341H3.95564V4.00004H3.33341ZM2.66675 4.00004V4.62226H3.33341V4.00004V3.37782H2.66675V4.00004ZM3.33341 4.00004V4.62226H5.33341V4.00004V3.37782H3.33341V4.00004ZM5.33341 4.00004V4.62226H10.6667V4.00004V3.37782H5.33341V4.00004ZM10.6667 4.00004V4.62226H12.6667V4.00004V3.37782H10.6667V4.00004ZM12.6667 4.00004V4.62226H13.3334V4.00004V3.37782H12.6667V4.00004ZM5.33341 3.70374H5.95564C5.95564 2.80514 6.80004 1.9556 8.00008 1.9556V1.33337V0.711152C6.2546 0.711152 4.71119 1.98411 4.71119 3.70374H5.33341ZM8.00008 1.33337V1.9556C9.20012 1.9556 10.0445 2.80514 10.0445 3.70374H10.6667H11.289C11.289 1.98411 9.74556 0.711152 8.00008 0.711152V1.33337ZM5.33341 3.70374H4.71119V4.00004H5.33341H5.95564V3.70374H5.33341ZM10.6667 3.70374H10.0445V4.00004H10.6667H11.289V3.70374H10.6667ZM6.00008 14.6667V14.0445C4.87097 14.0445 3.95564 13.1292 3.95564 12H3.33341H2.71119C2.71119 13.8164 4.18368 15.2889 6.00008 15.2889V14.6667ZM12.5951 12.0238L11.9729 12.0183C11.9629 13.1402 11.0505 14.0445 9.92855 14.0445V14.6667V15.2889C11.7335 15.2889 13.2012 13.8343 13.2173 12.0294L12.5951 12.0238ZM6.66675 6.66671H6.04453V12H6.66675H7.28897V6.66671H6.66675ZM9.33342 6.66671H8.71119V12H9.33342H9.95564V6.66671H9.33342Z" fill="inherit"/>
</svg>