<svg xmlns="http://www.w3.org/2000/svg" width="20" height="20" viewBox="0 0 20 20" fill="none">
    <path d="M13.7667 4.70835L11.1834 2.70835C10.85 2.37502 10.1 2.20835 9.60003 2.20835H6.43336C5.43336 2.20835 4.35003 2.95835 4.10003 3.95835L2.10003 10.0417C1.68336 11.2083 2.43336 12.2083 3.68336 12.2083H7.01669C7.51669 12.2083 7.93336 12.625 7.85003 13.2084L7.43336 15.875C7.26669 16.625 7.76669 17.4583 8.51669 17.7083C9.18336 17.9583 10.0167 17.625 10.35 17.125L13.7667 12.0417" stroke="inherit" stroke-width="1.5" stroke-miterlimit="10"/>
    <path d="M18.0168 4.70831V12.875C18.0168 14.0416 17.5168 14.4583 16.3501 14.4583H15.5168C14.3501 14.4583 13.8501 14.0416 13.8501 12.875V4.70831C13.8501 3.54165 14.3501 3.12498 15.5168 3.12498H16.3501C17.5168 3.12498 18.0168 3.54165 18.0168 4.70831Z" stroke="inherit" stroke-width="1.5" stroke-linecap="round" stroke-linejoin="round"/>
</svg>
