<svg xmlns="http://www.w3.org/2000/svg" width="20" height="20" viewBox="0 0 20 20" fill="none">
    <path d="M2.4246 10.9764C2.13996 10.3572 2.13996 9.64276 2.4246 9.02349C3.74219 6.15698 6.63884 4.16663 10.0004 4.16663C13.3619 4.16663 16.2586 6.15698 17.5761 9.02349C17.8608 9.64276 17.8608 10.3572 17.5761 10.9764C16.2586 13.8429 13.3619 15.8333 10.0004 15.8333C6.63884 15.8333 3.74219 13.8429 2.4246 10.9764Z" stroke="inherit" stroke-width="1.4"/>
    <path d="M12.5004 9.99996C12.5004 11.3807 11.3811 12.5 10.0004 12.5C8.61966 12.5 7.50037 11.3807 7.50037 9.99996C7.50037 8.61925 8.61966 7.49996 10.0004 7.49996C11.3811 7.49996 12.5004 8.61925 12.5004 9.99996Z" stroke="inherit" stroke-width="1.4"/>
</svg>