<svg width="336" height="132" viewBox="0 0 336 132" fill="none" xmlns="http://www.w3.org/2000/svg">
<path d="M84 26.1C84 17.1392 84 12.6587 85.7439 9.23615C87.2779 6.22556 89.7256 3.77787 92.7362 2.2439C96.1587 0.5 100.639 0.5 109.6 0.5H151C156.247 0.5 160.5 4.75329 160.5 10V10.75C160.5 15.5825 164.418 19.5 169.25 19.5C174.082 19.5 178 23.4175 178 28.25V84.9C178 93.8608 178 98.3413 176.256 101.764C174.722 104.774 172.274 107.222 169.264 108.756C165.841 110.5 161.361 110.5 152.4 110.5H109.6C100.639 110.5 96.1587 110.5 92.7362 108.756C89.7256 107.222 87.2779 104.774 85.7439 101.764C84 98.3413 84 93.8608 84 84.9V26.1Z" fill="#0D0D17" fill-opacity="0.06"/>
<rect x="92" y="8.5" width="46" height="10" rx="5" fill="white"/>
<rect x="92" y="26.5" width="57" height="10" rx="5" fill="white"/>
<rect x="92" y="44.5" width="42" height="10" rx="5" fill="white"/>
<rect x="92" y="62.5" width="32" height="10" rx="5" fill="#0D0D17" fill-opacity="0.03"/>
<path d="M165.74 34.7585C167.199 25.9172 167.929 21.4965 170.207 18.4035C172.21 15.6828 175.024 13.6663 178.244 12.6429C181.905 11.4795 186.325 12.2089 195.167 13.6678L236.014 20.4079C241.191 21.2621 244.695 26.1511 243.841 31.3278L243.719 32.0678C242.932 36.8358 246.16 41.3388 250.928 42.1256C255.696 42.9123 258.923 47.4153 258.136 52.1834L248.913 108.078C247.455 116.919 246.725 121.339 244.447 124.432C242.444 127.153 239.63 129.17 236.41 130.193C232.749 131.357 228.328 130.627 219.487 129.168L177.258 122.2C168.417 120.741 163.996 120.012 160.903 117.734C158.183 115.73 156.166 112.917 155.143 109.697C153.979 106.036 154.709 101.615 156.168 92.774L165.74 34.7585Z" fill="#0D0D17" fill-opacity="0.06"/>
<path d="M190.733 69.0685C193.948 65.8532 195.556 64.2455 197.16 63.9914C198.56 63.7697 199.988 64.1523 201.089 65.0441C202.351 66.0665 202.94 68.2626 204.117 72.6548L208.285 88.2111C209.462 92.6034 210.05 94.7995 209.468 96.3162C208.96 97.6391 207.915 98.6844 206.592 99.1922C205.075 99.7744 202.879 99.186 198.487 98.0091L182.931 93.8408C178.539 92.6639 176.342 92.0755 175.32 90.8129C174.428 89.7117 174.046 88.2837 174.267 86.8841C174.522 85.2795 176.129 83.6719 179.345 80.4565L190.733 69.0685Z" fill="#0D0D17" fill-opacity="0.03"/>
<path d="M206.662 68.8805C211.164 64.379 213.415 62.1283 215.661 61.7725C217.62 61.4621 219.62 61.9978 221.161 63.2463C222.929 64.6776 223.753 67.7522 225.4 73.9013L229.978 90.9852C231.626 97.1343 232.449 100.209 231.634 102.332C230.923 104.184 229.46 105.648 227.608 106.359C225.484 107.174 222.41 106.35 216.261 104.702L199.177 100.125C193.028 98.477 189.953 97.6532 188.522 95.8857C187.273 94.3439 186.738 92.3448 187.048 90.3854C187.404 88.1389 189.655 85.8882 194.156 81.3867L206.662 68.8805Z" fill="white"/>
<rect x="193.604" y="37.7229" width="16" height="16" rx="8" transform="rotate(9.36969 193.604 37.7229)" fill="white"/>
</svg>
