<svg xmlns="http://www.w3.org/2000/svg" width="21" height="20" viewBox="0 0 21 20" fill="none">
    <g clip-path="url(#clip0_9646_16681)">
        <path d="M0.5 0H20.5V20H0.5" fill="white"/>
        <path d="M6.47656 11.4062C7.64844 14.6094 11.0859 15.1172 13.1562 13.75H15.5781V15.625C14.7154 16.3629 13.6965 16.8953 12.5981 17.1821C11.4997 17.4689 10.3505 17.5026 9.23717 17.2807C8.12384 17.0588 7.07542 16.587 6.17093 15.901C5.26645 15.215 4.52949 14.3326 4.01562 13.3203" fill="#34A853"/>
        <path d="M15.5781 15.625C16.4277 14.8351 17.0755 13.754 17.443 12.5128C17.8105 11.2716 17.8819 9.92372 17.6484 8.63281H10.6562V11.5234H14.6406C14.4583 12.487 13.9635 13.2292 13.1563 13.75" fill="#4285F4"/>
        <path d="M4.01559 13.3203C3.50207 12.2762 3.23572 11.1355 3.23572 9.98047C3.23572 8.82544 3.50207 7.68479 4.01559 6.64062L6.47653 8.55469C6.16403 9.51823 6.16403 10.4688 6.47653 11.4062" fill="#FBBC02"/>
        <path d="M6.47656 8.55453C7.33594 5.85921 11.0078 4.29671 13.4688 6.6014L15.6172 4.49203C12.5703 1.56234 6.63281 1.67953 4.01562 6.64046" fill="#EA4335"/>
    </g>
    <defs>
        <clipPath id="clip0_9646_16681">
            <rect x="0.5" width="20" height="20" rx="10" fill="white"/>
        </clipPath>
    </defs>
</svg>
