<svg xmlns="http://www.w3.org/2000/svg" width="18" height="18" viewBox="0 0 18 18" fill="none">
    <path d="M15.7998 9C15.7998 5.2466 12.7534 2.2002 9 2.2002C5.2466 2.2002 2.2002 5.2466 2.2002 9C2.2002 12.7534 5.2466 15.7998 9 15.7998C12.7534 15.7998 15.7998 12.7534 15.7998 9ZM17.2002 9C17.2002 13.5266 13.5266 17.2002 9 17.2002C4.4734 17.2002 0.799805 13.5266 0.799805 9C0.799805 4.4734 4.4734 0.799805 9 0.799805C13.5266 0.799805 17.2002 4.4734 17.2002 9Z" fill="inherit"/>
    <path d="M8.02246 8.70776V5.63257C8.02246 5.24597 8.33606 4.93237 8.72266 4.93237C9.10926 4.93237 9.42285 5.24597 9.42285 5.63257V8.70776C9.4229 8.79325 9.45706 8.93655 9.5459 9.09253C9.61277 9.20978 9.68911 9.2978 9.75391 9.35229L9.81445 9.39526L9.81641 9.39624L12.1416 10.7839C12.4735 10.9821 12.5819 11.412 12.3838 11.7439C12.1857 12.0758 11.7558 12.1842 11.4238 11.9861L9.09863 10.5984V10.5974C8.76805 10.4007 8.50669 10.0965 8.33008 9.78687C8.153 9.47635 8.0225 9.09464 8.02246 8.70776Z" fill="inherit"/>
</svg>