<svg width="26" height="26" viewBox="0 0 26 26" fill="none" xmlns="http://www.w3.org/2000/svg">
    <path d="M13 6.25H11.05C9.36984 6.25 8.52976 6.25 7.88803 6.57698C7.32354 6.8646 6.8646 7.32354 6.57698 7.88803C6.25 8.52976 6.25 9.36984 6.25 11.05V14.95C6.25 16.6302 6.25 17.4702 6.57698 18.112C6.8646 18.6765 7.32354 19.1354 7.88803 19.423C8.52976 19.75 9.36984 19.75 11.05 19.75H15.5003C16.6636 19.75 17.2452 19.75 17.7141 19.5909C18.5974 19.2911 19.2911 18.5974 19.5909 17.7141C19.75 17.2452 19.75 16.6636 19.75 15.5003C19.75 14.7675 19.75 14.4011 19.6412 14.172C19.4345 13.7371 18.9741 13.4819 18.4958 13.5372C18.2438 13.5663 17.9331 13.7605 17.3117 14.1489L15.1667 15.4896C14.3193 16.0192 13.229 15.9517 12.4534 15.3215C11.4957 14.5434 10.0983 14.6436 9.26132 15.5502L8.5 16.375" stroke="#9E9EA2" stroke-width="1.35" stroke-linecap="round"/>
    <path d="M18.228 5.23372C18.2329 5.20953 18.2675 5.20953 18.2724 5.23372C18.5291 6.48959 19.5106 7.47103 20.7664 7.72772C20.7906 7.73267 20.7906 7.76724 20.7664 7.77218C19.5106 8.02887 18.5291 9.01032 18.2724 10.2662C18.2675 10.2904 18.2329 10.2904 18.228 10.2662C17.9713 9.01032 16.9898 8.02887 15.734 7.77218C15.7098 7.76724 15.7098 7.73267 15.734 7.72772C16.9898 7.47103 17.9713 6.48959 18.228 5.23372Z" stroke="#007AFF" stroke-width="1.35"/>
    <path d="M10.75 10.75V10.7875" stroke="#007AFF" stroke-width="1.35" stroke-linecap="round"/>
    <path d="M18.1422 5.3007C18.2364 4.89977 18.8071 4.89976 18.9013 5.3007L18.9105 5.33952C19.1187 6.22548 19.8341 6.90259 20.7302 7.06185C21.148 7.13611 21.148 7.73553 20.7302 7.80978C19.8341 7.96904 19.1187 8.64616 18.9105 9.53212L18.9013 9.57093C18.8071 9.97187 18.2364 9.97187 18.1422 9.57093L18.1331 9.53212C17.9248 8.64616 17.2094 7.96904 16.3134 7.80978C15.8955 7.73553 15.8955 7.13611 16.3134 7.06185C17.2094 6.90259 17.9248 6.22548 18.1331 5.33952L18.1422 5.3007Z" fill="#007AFF"/>
</svg>
