<svg xmlns="http://www.w3.org/2000/svg" width="18" height="18" viewBox="0 0 24 24" fill="none"><path d="M12 11C12.5523 11 13 11.4477 13 12V15.5C13 16.0523 12.5523 16.5 12 16.5C11.4477 16.5 11 16.0523 11 15.5V12C11 11.4477 11.4477 11 12 11Z" fill="inherit" fill-opacity="inherit"/><path d="M12 7.5C11.4477 7.5 11 7.94772 11 8.5C11 9.05228 11.4477 9.5 12 9.5H12.009C12.5613 9.5 13.009 9.05228 13.009 8.5C13.009 7.94772 12.5613 7.5 12.009 7.5H12Z" fill="inherit" fill-opacity="inherit"
/><path fill-rule="evenodd" clip-rule="evenodd" d="M2 12C2 6.47715 6.47715 2 12 2C17.5228 2 22 6.47715 22 12C22 17.5228 17.5228 22 12 22C6.47715 22 2 17.5228 2 12ZM12 4C7.58172 4 4 7.58172 4 12C4 16.4183 7.58172 20 12 20C16.4183 20 20 16.4183 20 12C20 7.58172 16.4183 4 12 4Z" fill="inherit" fill-opacity="inherit"/></svg>