<svg width="14" height="14" viewBox="0 0 14 14" fill="none" xmlns="http://www.w3.org/2000/svg">
<g clip-path="url(#clip0_7058_1618)">
<path d="M7.00065 -0.000488281C5.09955 -0.000488281 4.86097 0.00782438 4.11429 0.0418035C3.36908 0.0759286 2.8604 0.193908 2.41532 0.367012C1.95492 0.545803 1.56437 0.784971 1.17528 1.1742C0.785906 1.56328 0.546732 1.95383 0.367358 2.41408C0.193814 2.8593 0.0756883 3.36812 0.0421462 4.11304C0.00875 4.8597 0 5.09843 0 6.99951C0 8.9006 0.00845853 9.13844 0.0422922 9.88513C0.0765633 10.6303 0.194544 11.139 0.367504 11.5841C0.546442 12.0445 0.78561 12.435 1.17485 12.8241C1.56379 13.2135 1.95434 13.4532 2.41444 13.632C2.85982 13.8051 3.36864 13.9231 4.11371 13.9572C4.86039 13.9912 5.09882 13.9995 6.99979 13.9995C8.90104 13.9995 9.13888 13.9912 9.88556 13.9572C10.6308 13.9231 11.14 13.8051 11.5854 13.632C12.0457 13.4532 12.4356 13.2135 12.8246 12.8241C13.214 12.435 13.4531 12.0445 13.6325 11.5842C13.8046 11.139 13.9227 10.6302 13.9577 9.88529C13.9912 9.13861 14 8.9006 14 6.99951C14 5.09843 13.9912 4.85984 13.9577 4.11318C13.9227 3.36797 13.8046 2.8593 13.6325 2.41422C13.4531 1.95383 13.214 1.56328 12.8246 1.1742C12.4352 0.784826 12.0458 0.545657 11.585 0.367012C11.1387 0.193908 10.6298 0.0759286 9.88454 0.0418035C9.13785 0.00782438 8.90018 -0.000488281 6.99849 -0.000488281H7.00065ZM6.37269 1.26097C6.55905 1.26068 6.76701 1.26097 7.00065 1.26097C8.8697 1.26097 9.09122 1.26768 9.82929 1.30122C10.5118 1.33243 10.8822 1.44647 11.1289 1.54228C11.4556 1.66916 11.6885 1.82083 11.9334 2.06583C12.1784 2.31083 12.3301 2.54416 12.4572 2.87083C12.553 3.11729 12.6672 3.4877 12.6983 4.1702C12.7318 4.90812 12.7391 5.12979 12.7391 6.9979C12.7391 8.86604 12.7318 9.08772 12.6983 9.82563C12.6671 10.5081 12.553 10.8785 12.4572 11.125C12.3303 11.4517 12.1784 11.6843 11.9334 11.9291C11.6884 12.1741 11.4558 12.3258 11.1289 12.4527C10.8825 12.5489 10.5118 12.6627 9.82929 12.6939C9.09133 12.7274 8.8697 12.7347 7.00065 12.7347C5.13149 12.7347 4.90997 12.7274 4.17204 12.6939C3.48954 12.6624 3.11911 12.5483 2.87222 12.4525C2.54554 12.3257 2.31221 12.174 2.06721 11.929C1.82221 11.684 1.67054 11.4512 1.54337 11.1244C1.44756 10.8779 1.33337 10.5075 1.30231 9.82504C1.26876 9.08713 1.26206 8.86544 1.26206 6.99617C1.26206 5.12687 1.26876 4.90637 1.30231 4.16845C1.33352 3.48595 1.44756 3.11554 1.54337 2.86878C1.67025 2.54212 1.82221 2.30878 2.06721 2.06379C2.31221 1.81878 2.54554 1.66712 2.87222 1.53995C3.11897 1.4437 3.48954 1.32995 4.17204 1.29859C4.8178 1.26943 5.06805 1.26068 6.37269 1.25922V1.26097ZM10.7372 2.42326C10.2735 2.42326 9.89725 2.79908 9.89725 3.26297C9.89725 3.72672 10.2735 4.10297 10.7372 4.10297C11.201 4.10297 11.5772 3.72672 11.5772 3.26297C11.5772 2.79922 11.201 2.42326 10.7372 2.42326ZM7.00065 3.40472C5.01541 3.40472 3.40583 5.01429 3.40583 6.99951C3.40583 8.98477 5.01541 10.5936 7.00065 10.5936C8.9859 10.5936 10.5949 8.98477 10.5949 6.99951C10.5949 5.01429 8.9859 3.40472 7.00065 3.40472ZM7.00065 4.66618C8.28924 4.66618 9.33402 5.71076 9.33402 6.99951C9.33402 8.2881 8.28924 9.33283 7.00065 9.33283C5.71189 9.33283 4.6673 8.2881 4.6673 6.99951C4.6673 5.71076 5.71189 4.66618 7.00065 4.66618Z" fill="#007AFF"/>
</g>
<defs>
<clipPath id="clip0_7058_1618">
<rect width="14" height="14" fill="white"/>
</clipPath>
</defs>
</svg>
