<svg xmlns="http://www.w3.org/2000/svg" width="18" height="18" viewBox="0 0 18 18" fill="none">
    <path d="M11.25 0.799805C13.194 0.799805 14.7371 1.18438 15.7764 2.22363C16.8156 3.26289 17.2002 4.80596 17.2002 6.75V11.25C17.2002 13.194 16.8156 14.7371 15.7764 15.7764C14.7371 16.8156 13.194 17.2002 11.25 17.2002H6.75C4.80596 17.2002 3.26289 16.8156 2.22363 15.7764C1.18438 14.7371 0.799805 13.194 0.799805 11.25V6.75C0.799805 4.80596 1.18438 3.26289 2.22363 2.22363C3.26289 1.18438 4.80596 0.799805 6.75 0.799805H11.25ZM14.8223 9.90625C14.5199 9.64649 14.0109 9.63027 13.6826 9.85742L13.6191 9.90625L10.499 12.584L10.498 12.583C9.65071 13.3105 8.31889 13.3107 7.47168 12.583L7.46582 12.5781L7.22461 12.3652V12.3662C6.97272 12.1498 6.55194 12.0966 6.22461 12.2383L6.09082 12.3115L2.92383 14.4365C3.01333 14.5649 3.10931 14.6816 3.21387 14.7861C3.86211 15.4344 4.94404 15.7998 6.75 15.7998H11.25C13.056 15.7998 14.1379 15.4344 14.7861 14.7861C15.4344 14.1379 15.7998 13.056 15.7998 11.25V10.7461L14.8223 9.90625ZM6.75 2.2002C4.94404 2.2002 3.86211 2.56562 3.21387 3.21387C2.56562 3.86211 2.2002 4.94404 2.2002 6.75V11.25C2.2002 11.9858 2.26219 12.6011 2.37793 13.1162L5.31055 11.1484L5.47363 11.0498C6.25114 10.6208 7.26272 10.6684 7.98633 11.1855L8.13672 11.3037L8.14258 11.3086L7.68066 11.835L8.14258 11.3096L8.38379 11.5215L8.44727 11.5703C8.77557 11.7976 9.28446 11.7813 9.58691 11.5215L12.707 8.84375L12.8711 8.71582C13.7188 8.11888 14.94 8.16144 15.7344 8.84375L15.7998 8.89941V6.75C15.7998 4.94404 15.4344 3.86211 14.7861 3.21387C14.1379 2.56562 13.056 2.2002 11.25 2.2002H6.75ZM6.75 3.9375C7.88909 3.9375 8.8125 4.86091 8.8125 6C8.8125 7.13909 7.88909 8.0625 6.75 8.0625C5.61091 8.0625 4.6875 7.13909 4.6875 6C4.6875 4.86091 5.61091 3.9375 6.75 3.9375ZM6.75 5.0625C6.23223 5.0625 5.8125 5.48223 5.8125 6C5.8125 6.51777 6.23223 6.9375 6.75 6.9375C7.26777 6.9375 7.6875 6.51777 7.6875 6C7.6875 5.48223 7.26777 5.0625 6.75 5.0625Z" fill="inherit"/>
</svg>