<svg xmlns="http://www.w3.org/2000/svg" width="20" height="20" viewBox="0 0 20 20" fill="none">
    <path d="M6.23331 15.2917L8.81664 17.2916C9.14997 17.625 9.89997 17.7916 10.4 17.7916H13.5666C14.5666 17.7916 15.65 17.0416 15.9 16.0416L17.9 9.95832C18.3166 8.79165 17.5666 7.79165 16.3166 7.79165H12.9833C12.4833 7.79165 12.0666 7.37498 12.15 6.79165L12.5666 4.12498C12.7333 3.37498 12.2333 2.54165 11.4833 2.29165C10.8166 2.04165 9.98331 2.37498 9.64997 2.87498L6.23331 7.95832" stroke="inherit" stroke-width="1.5" stroke-miterlimit="10"/>
    <path d="M1.98325 15.2917V7.12502C1.98325 5.95835 2.48325 5.54169 3.64991 5.54169H4.48325C5.64991 5.54169 6.14991 5.95835 6.14991 7.12502V15.2917C6.14991 16.4584 5.64991 16.875 4.48325 16.875H3.64991C2.48325 16.875 1.98325 16.4584 1.98325 15.2917Z" stroke="inherit" stroke-width="1.5" stroke-linecap="round" stroke-linejoin="round"/>
</svg>
