<svg xmlns="http://www.w3.org/2000/svg" width="" height="" viewBox="0 0 32 32" fill="none">
    <path d="M26.5259 27.9399C26.9164 28.3305 27.5496 28.3305 27.9401 27.9399C28.3306 27.5494 28.3306 26.9163 27.9401 26.5257L26.5259 27.9399ZM22.519 7.43385L23.2261 6.72675L22.519 7.43385ZM21.8118 21.8117C18.0368 25.5868 11.9162 25.5868 8.14112 21.8117L6.7269 23.2259C11.283 27.782 18.6699 27.782 23.2261 23.2259L21.8118 21.8117ZM8.14112 21.8117C4.36605 18.0366 4.36605 11.916 8.14112 8.14096L6.7269 6.72675C2.17079 11.2829 2.17079 18.6698 6.7269 23.2259L8.14112 21.8117ZM8.14112 8.14096C9.95761 6.32447 12.3149 5.38242 14.6957 5.31371L14.638 3.31454C11.7673 3.39739 8.91849 4.53516 6.7269 6.72675L8.14112 8.14096ZM24.6391 14.6955C24.7132 17.264 23.7708 19.8527 21.8118 21.8117L23.2261 23.2259C25.5902 20.8618 26.7276 17.7336 26.6383 14.6378L24.6391 14.6955ZM21.8118 23.2259L26.5259 27.9399L27.9401 26.5257L23.2261 21.8117L21.8118 23.2259ZM14.6957 5.31371C17.0812 5.24487 19.6966 6.02576 21.8118 8.14096L23.2261 6.72675C20.6749 4.17561 17.504 3.23183 14.638 3.31454L14.6957 5.31371ZM21.8118 8.14096C23.7979 10.127 24.5644 12.1061 24.6391 14.6955L26.6383 14.6378C26.5495 11.5631 25.5903 9.09101 23.2261 6.72675L21.8118 8.14096Z" fill="inherit"/>
</svg>
