<svg xmlns="http://www.w3.org/2000/svg" width="19" height="18" viewBox="0 0 19 18" fill="none">
    <path d="M14.3524 12.6225L14.6449 14.9925C14.7199 15.615 14.0524 16.05 13.5199 15.7275L10.3774 13.86C10.0324 13.86 9.69489 13.8375 9.36489 13.7925C9.91989 13.14 10.2499 12.315 10.2499 11.4225C10.2499 9.29249 8.40489 7.56752 6.12489 7.56752C5.25489 7.56752 4.45239 7.815 3.78489 8.25C3.76239 8.0625 3.75488 7.87499 3.75488 7.67999C3.75488 4.26749 6.71738 1.5 10.3774 1.5C14.0374 1.5 16.9999 4.26749 16.9999 7.67999C16.9999 9.70499 15.9574 11.4975 14.3524 12.6225Z" stroke="white" stroke-width="1.4" stroke-linecap="round" stroke-linejoin="round"/>
    <path d="M10.25 11.4223C10.25 12.3148 9.92001 13.1399 9.36501 13.7924C8.62251 14.6924 7.445 15.2699 6.125 15.2699L4.1675 16.4323C3.8375 16.6348 3.4175 16.3574 3.4625 15.9749L3.65 14.4974C2.645 13.7999 2 12.6823 2 11.4223C2 10.1023 2.705 8.93986 3.785 8.24986C4.4525 7.81486 5.255 7.56738 6.125 7.56738C8.405 7.56738 10.25 9.29235 10.25 11.4223Z" stroke="white" stroke-width="1.4" stroke-linecap="round" stroke-linejoin="round"/>
</svg>