<svg xmlns="http://www.w3.org/2000/svg" width="20" height="20" viewBox="0 0 20 20" fill="none">
    <path d="M12.5251 8.9746L17.2417 5.81628C17.7167 5.49962 17.8417 4.84961 17.5251 4.38295L16.0084 2.1246C15.6917 1.6496 15.0417 1.5246 14.5751 1.84127L9.8584 4.99961L12.5251 8.9746Z" stroke="inherit" stroke-width="1.56" stroke-linecap="round" stroke-linejoin="round"/>
    <path d="M10.1445 5.39911L6.16309 8.06567L8.29634 11.2508L12.2777 8.58423L10.1445 5.39911Z" stroke="inherit" stroke-width="1.56" stroke-linecap="round" stroke-linejoin="round"/>
    <path d="M4.85812 13.2497L8.14979 11.0497L6.28312 8.26636L2.99145 10.4663C2.60812 10.7247 2.50812 11.2414 2.76646 11.6247L3.70812 13.0247C3.95812 13.3997 4.47479 13.4997 4.85812 13.2497Z" stroke="inherit" stroke-width="1.56" stroke-linecap="round" stroke-linejoin="round"/>
    <path d="M10.0415 10.1665L6.2998 18.3332" stroke="inherit" stroke-width="1.56" stroke-linecap="round" stroke-linejoin="round"/>
    <path d="M10 10.1665L13.7 18.3332" stroke="inherit" stroke-width="1.56" stroke-linecap="round" stroke-linejoin="round"/>
</svg>