<svg xmlns="http://www.w3.org/2000/svg" width="18" height="18" viewBox="0 0 18 18" fill="none">
    <g clip-path="url(#clip0_14424_20663)">
        <path d="M6.23428 6.23435H6.51553M6.23428 6.5156H6.51553M6.75 6.375C6.75 6.58211 6.58211 6.75 6.375 6.75C6.16789 6.75 6 6.58211 6 6.375C6 6.16789 6.16789 6 6.375 6C6.58211 6 6.75 6.16789 6.75 6.375Z" stroke="inherit" stroke-width="1.5" stroke-linecap="round"/>
        <path d="M11.4843 6.23435H11.7655M11.4843 6.5156H11.7655M12 6.375C12 6.58211 11.8321 6.75 11.625 6.75C11.4179 6.75 11.25 6.58211 11.25 6.375C11.25 6.16789 11.4179 6 11.625 6C11.8321 6 12 6.16789 12 6.375Z" stroke="inherit" stroke-width="1.5" stroke-linecap="round"/>
        <path d="M9 12L12 12" stroke="inherit" stroke-width="1.5" stroke-linecap="round"/>
        <path d="M9 17.25C13.5563 17.25 17.25 13.5563 17.25 9C17.25 4.44365 13.5563 0.75 9 0.75C4.44365 0.75 0.75 4.44365 0.75 9C0.75 13.5563 4.44365 17.25 9 17.25Z" stroke="inherit" stroke-width="1.5" stroke-linecap="round"/>
    </g>
    <defs>
        <clipPath id="clip0_14424_20663">
            <rect width="18" height="18" fill="white"/>
        </clipPath>
    </defs>
</svg>
