<svg width="0" height="0" viewBox="0 0 80 80" fill="none" xmlns="http://www.w3.org/2000/svg">
  <path d="M78.2538 20.74C77.7935 19.0433 76.8973 17.4965 75.6542 16.2533C74.411 15.0102 72.8643 14.114 71.1675 13.6538C64.955 11.9575 39.95 11.9575 39.95 11.9575C39.95 11.9575 14.9438 12.0075 8.73 13.7038C7.03325 14.164 5.48645 15.0602 4.24331 16.3033C3.00018 17.5465 2.10397 19.0933 1.64375 20.79C0 27.0038 0 39.995 0 39.995C0 39.995 0 52.9863 1.695 59.25C2.15522 60.9468 3.05143 62.4936 4.29456 63.7367C5.5377 64.9798 7.0845 65.876 8.78125 66.3363C14.9937 68.0325 40 68.0325 40 68.0325C40 68.0325 65.0062 68.0325 71.22 66.3375C72.9168 65.8773 74.4635 64.9811 75.7067 63.7379C76.9498 62.4948 77.846 60.948 78.3063 59.2513C80 53.0375 80 39.995 80 39.995C80 39.995 79.95 27.0038 78.2538 20.74Z" fill="#FF0000"/>
  <path d="M31.9895 52.0139L52.7333 39.9989L31.9883 27.9839L31.9895 52.0139Z" fill="white"/>
</svg>