<svg width="134" height="134" viewBox="0 0 134 134" fill="none" xmlns="http://www.w3.org/2000/svg">
<g clip-path="url(#clip0_12407_67905)">
<g filter="url(#filter0_dddd_12407_67905)">
<g clip-path="url(#clip1_12407_67905)">
<rect x="37" y="28.5" width="80" height="80" rx="40" fill="#EDF1FD"/>
<path d="M130.764 39.6294V55.4302H75.9629V39.6294H130.764Z" fill="url(#paint0_linear_12407_67905)"/>
<path d="M130.764 39.6294V55.4302H75.9629V39.6294H130.764Z" stroke="url(#paint1_linear_12407_67905)" stroke-width="0.2"/>
<path d="M130.764 39.6294V55.4302H75.9629V39.6294H130.764Z" stroke="white" stroke-opacity="0.2" stroke-width="0.2"/>
<path d="M130.764 39.6294V55.4302H75.9629V39.6294H130.764Z" stroke="url(#paint2_radial_12407_67905)" stroke-width="0.2"/>
<path d="M117 39.52H76V55.52H117V39.52Z" fill="url(#paint3_linear_12407_67905)" fill-opacity="0.2"/>
<g filter="url(#filter1_ii_12407_67905)">
<path d="M77.0304 97.5594C61.0231 97.5594 48 84.5363 48 68.529C48 52.5217 61.0231 39.5005 77.0304 39.5005C93.0377 39.5005 106.059 52.5238 106.059 68.529C106.059 84.5345 93.0358 97.5594 77.0304 97.5594ZM77.0304 55.5447C73.5876 55.5483 70.2869 56.9174 67.8525 59.3516C65.4178 61.7858 64.0483 65.0863 64.0442 68.529C64.0476 71.972 65.4171 75.2732 67.8518 77.7079C70.2865 80.1425 73.5874 81.5118 77.0304 81.5154C80.4731 81.5113 83.7736 80.1416 86.2078 77.7072C88.642 75.2725 90.0111 71.9718 90.0147 68.529C90.0106 65.0867 88.6413 61.7865 86.2071 59.3523C83.7731 56.9181 80.4729 55.5488 77.0304 55.5447Z" fill="url(#paint4_linear_12407_67905)"/>
<path d="M77.0304 97.5594C61.0231 97.5594 48 84.5363 48 68.529C48 52.5217 61.0231 39.5005 77.0304 39.5005C93.0377 39.5005 106.059 52.5238 106.059 68.529C106.059 84.5345 93.0358 97.5594 77.0304 97.5594ZM77.0304 55.5447C73.5876 55.5483 70.2869 56.9174 67.8525 59.3516C65.4178 61.7858 64.0483 65.0863 64.0442 68.529C64.0476 71.972 65.4171 75.2732 67.8518 77.7079C70.2865 80.1425 73.5874 81.5118 77.0304 81.5154C80.4731 81.5113 83.7736 80.1416 86.2078 77.7072C88.642 75.2725 90.0111 71.9718 90.0147 68.529C90.0106 65.0867 88.6413 61.7865 86.2071 59.3523C83.7731 56.9181 80.4729 55.5488 77.0304 55.5447Z" fill="url(#paint5_radial_12407_67905)" fill-opacity="0.1"/>
</g>
<path d="M77.0303 39.6001C92.9823 39.6001 105.959 52.5789 105.959 68.5288C105.959 84.479 92.9805 97.4595 77.0303 97.4595C61.0783 97.4594 48.0996 84.4808 48.0996 68.5288C48.0997 52.5769 61.0783 39.6002 77.0303 39.6001ZM77.0303 55.4448C73.5612 55.4485 70.2354 56.828 67.7822 59.2808C65.3289 61.7337 63.9485 65.0596 63.9443 68.5288C63.9478 71.9983 65.3279 75.3254 67.7812 77.7788C70.1579 80.1553 73.3536 81.5241 76.7051 81.6108L77.0303 81.6157C80.4995 81.6116 83.8254 80.2309 86.2783 77.7778C88.7313 75.3244 90.1106 71.9981 90.1143 68.5288C90.1101 65.0602 88.731 61.7346 86.2783 59.2817C83.9023 56.9055 80.7066 55.5358 77.3555 55.4487L77.0303 55.4448Z" stroke="url(#paint6_linear_12407_67905)" stroke-width="0.2"/>
<path d="M77.0303 39.6001C92.9823 39.6001 105.959 52.5789 105.959 68.5288C105.959 84.479 92.9805 97.4595 77.0303 97.4595C61.0783 97.4594 48.0996 84.4808 48.0996 68.5288C48.0997 52.5769 61.0783 39.6002 77.0303 39.6001ZM77.0303 55.4448C73.5612 55.4485 70.2354 56.828 67.7822 59.2808C65.3289 61.7337 63.9485 65.0596 63.9443 68.5288C63.9478 71.9983 65.3279 75.3254 67.7812 77.7788C70.1579 80.1553 73.3536 81.5241 76.7051 81.6108L77.0303 81.6157C80.4995 81.6116 83.8254 80.2309 86.2783 77.7778C88.7313 75.3244 90.1106 71.9981 90.1143 68.5288C90.1101 65.0602 88.731 61.7346 86.2783 59.2817C83.9023 56.9055 80.7066 55.5358 77.3555 55.4487L77.0303 55.4448Z" stroke="white" stroke-opacity="0.2" stroke-width="0.2"/>
<path d="M77.0303 39.6001C92.9823 39.6001 105.959 52.5789 105.959 68.5288C105.959 84.479 92.9805 97.4595 77.0303 97.4595C61.0783 97.4594 48.0996 84.4808 48.0996 68.5288C48.0997 52.5769 61.0783 39.6002 77.0303 39.6001ZM77.0303 55.4448C73.5612 55.4485 70.2354 56.828 67.7822 59.2808C65.3289 61.7337 63.9485 65.0596 63.9443 68.5288C63.9478 71.9983 65.3279 75.3254 67.7812 77.7788C70.1579 80.1553 73.3536 81.5241 76.7051 81.6108L77.0303 81.6157C80.4995 81.6116 83.8254 80.2309 86.2783 77.7778C88.7313 75.3244 90.1106 71.9981 90.1143 68.5288C90.1101 65.0602 88.731 61.7346 86.2783 59.2817C83.9023 56.9055 80.7066 55.5358 77.3555 55.4487L77.0303 55.4448Z" stroke="url(#paint7_radial_12407_67905)" stroke-width="0.2"/>
</g>
</g>
<g filter="url(#filter2_d_12407_67905)">
<path fill-rule="evenodd" clip-rule="evenodd" d="M12.1575 44.1228C12.4912 44.0091 12.6581 43.9523 12.8143 43.8918C14.97 43.0566 16.6654 41.3392 17.4726 39.173C17.5311 39.016 17.5858 38.8484 17.6951 38.5132L19.3412 33.4668C19.5345 32.8742 20.0853 32.4717 20.7087 32.4677C21.3321 32.4636 21.8881 32.859 22.089 33.4491L23.8 38.4738C23.9137 38.8076 23.9705 38.9744 24.031 39.1307C24.8662 41.2863 26.5836 42.9817 28.7498 43.789C28.9068 43.8475 29.0744 43.9021 29.4096 44.0115L34.456 45.6575C35.0487 45.8508 35.4511 46.4017 35.4551 47.025C35.4592 47.6484 35.0638 48.2044 34.4737 48.4054L29.449 50.1164C29.1152 50.23 28.9484 50.2868 28.7921 50.3474C26.6365 51.1825 24.9411 52.8999 24.1339 55.0662C24.0753 55.2232 24.0207 55.3908 23.9113 55.7259L22.2653 60.7723C22.072 61.365 21.5211 61.7675 20.8978 61.7715C20.2744 61.7755 19.7184 61.3802 19.5174 60.7901L17.8064 55.7653C17.6928 55.4316 17.636 55.2647 17.5754 55.1085C16.7403 52.9528 15.0229 51.2574 12.8567 50.4502C12.6997 50.3917 12.5321 50.337 12.1969 50.2277L7.15047 48.5817C6.55781 48.3883 6.15535 47.8375 6.15133 47.2141C6.14731 46.5907 6.54263 46.0347 7.13274 45.8338L12.1575 44.1228Z" fill="url(#paint8_linear_12407_67905)" shape-rendering="crispEdges"/>
<path fill-rule="evenodd" clip-rule="evenodd" d="M33.3477 29.5557C34.6996 29.0953 35.7559 28.0253 36.1988 26.6675L36.8892 24.5508C37.0826 23.9581 37.6334 23.5557 38.2568 23.5516C38.8802 23.5476 39.4362 23.9429 39.6371 24.5331L40.3548 26.6407C40.8152 27.9926 41.8852 29.0489 43.2429 29.4918L45.3597 30.1822C45.9523 30.3756 46.3548 30.9264 46.3588 31.5498C46.3628 32.1732 45.9675 32.7292 45.3774 32.9301L43.2698 33.6478C41.9178 34.1082 40.8615 35.1782 40.4186 36.5359L39.7282 38.6527C39.5349 39.2453 38.984 39.6478 38.3607 39.6518C37.7373 39.6558 37.1813 39.2605 36.9803 38.6704L36.2627 36.5627C35.8023 35.2108 34.7323 34.1545 33.3745 33.7116L31.2578 33.0212C30.6651 32.8279 30.2627 32.277 30.2586 31.6537C30.2546 31.0303 30.6499 30.4743 31.2401 30.2733L33.3477 29.5557Z" fill="url(#paint9_linear_12407_67905)" shape-rendering="crispEdges"/>
</g>
<g opacity="0.8" filter="url(#filter3_d_12407_67905)">
<path fill-rule="evenodd" clip-rule="evenodd" d="M24.1894 102.264C25.7659 101.634 26.9537 100.298 27.3955 98.6587L28.0841 96.1029C28.2769 95.3873 28.906 94.8754 29.6458 94.832C30.3856 94.7887 31.0702 95.2236 31.3453 95.9117L32.3279 98.3695C32.9581 99.9461 34.2939 101.134 35.9333 101.576L38.489 102.264C39.2046 102.457 39.7165 103.086 39.7599 103.826C39.8033 104.566 39.3684 105.25 38.6802 105.525L36.2224 106.508C34.6458 107.138 33.458 108.474 33.0163 110.113L32.3277 112.669C32.1349 113.385 31.5058 113.897 30.7659 113.94C30.0261 113.983 29.3415 113.549 29.0664 112.86L28.0839 110.403C27.4536 108.826 26.1179 107.638 24.4785 107.196L21.9227 106.508C21.2072 106.315 20.6952 105.686 20.6519 104.946C20.6085 104.206 21.0434 103.522 21.7316 103.247L24.1894 102.264Z" fill="url(#paint10_linear_12407_67905)"/>
</g>
<g opacity="0.9" filter="url(#filter4_d_12407_67905)">
<path fill-rule="evenodd" clip-rule="evenodd" d="M116.199 34.4845C117.322 34.0354 118.169 33.0834 118.484 31.915L118.974 30.0935C119.112 29.5835 119.56 29.2187 120.087 29.1878C120.615 29.1568 121.103 29.4668 121.299 29.9572L121.999 31.7089C122.448 32.8325 123.4 33.6791 124.568 33.9939L126.39 34.4847C126.9 34.6221 127.265 35.0704 127.296 35.5977C127.327 36.125 127.017 36.6129 126.526 36.8089L124.775 37.5092C123.651 37.9584 122.804 38.9104 122.49 40.0787L121.999 41.9002C121.861 42.4102 121.413 42.7751 120.886 42.806C120.358 42.8369 119.871 42.5269 119.675 42.0365L118.974 40.2848C118.525 39.1612 117.573 38.3147 116.405 37.9998L114.583 37.5091C114.073 37.3716 113.708 36.9233 113.677 36.396C113.647 35.8687 113.957 35.3809 114.447 35.1848L116.199 34.4845Z" fill="url(#paint11_linear_12407_67905)"/>
</g>
</g>
<defs>
<filter id="filter0_dddd_12407_67905" x="32" y="26.5" width="112" height="124" filterUnits="userSpaceOnUse" color-interpolation-filters="sRGB">
<feFlood flood-opacity="0" result="BackgroundImageFix"/>
<feColorMatrix in="SourceAlpha" type="matrix" values="0 0 0 0 0 0 0 0 0 0 0 0 0 0 0 0 0 0 127 0" result="hardAlpha"/>
<feOffset dx="1" dy="2"/>
<feGaussianBlur stdDeviation="2"/>
<feColorMatrix type="matrix" values="0 0 0 0 0 0 0 0 0 0 0 0 0 0 0 0 0 0 0.1 0"/>
<feBlend mode="normal" in2="BackgroundImageFix" result="effect1_dropShadow_12407_67905"/>
<feColorMatrix in="SourceAlpha" type="matrix" values="0 0 0 0 0 0 0 0 0 0 0 0 0 0 0 0 0 0 127 0" result="hardAlpha"/>
<feOffset dx="3" dy="7"/>
<feGaussianBlur stdDeviation="4"/>
<feColorMatrix type="matrix" values="0 0 0 0 0 0 0 0 0 0 0 0 0 0 0 0 0 0 0.09 0"/>
<feBlend mode="normal" in2="effect1_dropShadow_12407_67905" result="effect2_dropShadow_12407_67905"/>
<feColorMatrix in="SourceAlpha" type="matrix" values="0 0 0 0 0 0 0 0 0 0 0 0 0 0 0 0 0 0 127 0" result="hardAlpha"/>
<feOffset dx="8" dy="17"/>
<feGaussianBlur stdDeviation="5.5"/>
<feColorMatrix type="matrix" values="0 0 0 0 0 0 0 0 0 0 0 0 0 0 0 0 0 0 0.05 0"/>
<feBlend mode="normal" in2="effect2_dropShadow_12407_67905" result="effect3_dropShadow_12407_67905"/>
<feColorMatrix in="SourceAlpha" type="matrix" values="0 0 0 0 0 0 0 0 0 0 0 0 0 0 0 0 0 0 127 0" result="hardAlpha"/>
<feOffset dx="14" dy="29"/>
<feGaussianBlur stdDeviation="6.5"/>
<feColorMatrix type="matrix" values="0 0 0 0 0 0 0 0 0 0 0 0 0 0 0 0 0 0 0.01 0"/>
<feBlend mode="normal" in2="effect3_dropShadow_12407_67905" result="effect4_dropShadow_12407_67905"/>
<feBlend mode="normal" in="SourceGraphic" in2="effect4_dropShadow_12407_67905" result="shape"/>
</filter>
<filter id="filter1_ii_12407_67905" x="48" y="38.7005" width="58.0586" height="59.6591" filterUnits="userSpaceOnUse" color-interpolation-filters="sRGB">
<feFlood flood-opacity="0" result="BackgroundImageFix"/>
<feBlend mode="normal" in="SourceGraphic" in2="BackgroundImageFix" result="shape"/>
<feColorMatrix in="SourceAlpha" type="matrix" values="0 0 0 0 0 0 0 0 0 0 0 0 0 0 0 0 0 0 127 0" result="hardAlpha"/>
<feOffset dy="-0.8"/>
<feGaussianBlur stdDeviation="0.4"/>
<feComposite in2="hardAlpha" operator="arithmetic" k2="-1" k3="1"/>
<feColorMatrix type="matrix" values="0 0 0 0 1 0 0 0 0 1 0 0 0 0 1 0 0 0 0.1 0"/>
<feBlend mode="normal" in2="shape" result="effect1_innerShadow_12407_67905"/>
<feColorMatrix in="SourceAlpha" type="matrix" values="0 0 0 0 0 0 0 0 0 0 0 0 0 0 0 0 0 0 127 0" result="hardAlpha"/>
<feOffset dy="0.8"/>
<feGaussianBlur stdDeviation="0.4"/>
<feComposite in2="hardAlpha" operator="arithmetic" k2="-1" k3="1"/>
<feColorMatrix type="matrix" values="0 0 0 0 1 0 0 0 0 1 0 0 0 0 1 0 0 0 0.1 0"/>
<feBlend mode="normal" in2="effect1_innerShadow_12407_67905" result="effect2_innerShadow_12407_67905"/>
</filter>
<filter id="filter2_d_12407_67905" x="1.37347" y="23.5518" width="49.7628" height="47.7755" filterUnits="userSpaceOnUse" color-interpolation-filters="sRGB">
<feFlood flood-opacity="0" result="BackgroundImageFix"/>
<feColorMatrix in="SourceAlpha" type="matrix" values="0 0 0 0 0 0 0 0 0 0 0 0 0 0 0 0 0 0 127 0" result="hardAlpha"/>
<feOffset dy="4.7779"/>
<feGaussianBlur stdDeviation="2.38895"/>
<feComposite in2="hardAlpha" operator="out"/>
<feColorMatrix type="matrix" values="0 0 0 0 0 0 0 0 0 0 0 0 0 0 0 0 0 0 0.25 0"/>
<feBlend mode="normal" in2="BackgroundImageFix" result="effect1_dropShadow_12407_67905"/>
<feBlend mode="normal" in="SourceGraphic" in2="effect1_dropShadow_12407_67905" result="shape"/>
</filter>
<filter id="filter3_d_12407_67905" x="15.6113" y="94.8291" width="29.1886" height="29.1881" filterUnits="userSpaceOnUse" color-interpolation-filters="sRGB">
<feFlood flood-opacity="0" result="BackgroundImageFix"/>
<feColorMatrix in="SourceAlpha" type="matrix" values="0 0 0 0 0 0 0 0 0 0 0 0 0 0 0 0 0 0 127 0" result="hardAlpha"/>
<feOffset dy="5.03715"/>
<feGaussianBlur stdDeviation="2.51858"/>
<feComposite in2="hardAlpha" operator="out"/>
<feColorMatrix type="matrix" values="0 0 0 0 0 0 0 0 0 0 0 0 0 0 0 0 0 0 0.25 0"/>
<feBlend mode="normal" in2="BackgroundImageFix" result="effect1_dropShadow_12407_67905"/>
<feBlend mode="normal" in="SourceGraphic" in2="effect1_dropShadow_12407_67905" result="shape"/>
</filter>
<filter id="filter4_d_12407_67905" x="108.639" y="29.1855" width="23.6964" height="23.6969" filterUnits="userSpaceOnUse" color-interpolation-filters="sRGB">
<feFlood flood-opacity="0" result="BackgroundImageFix"/>
<feColorMatrix in="SourceAlpha" type="matrix" values="0 0 0 0 0 0 0 0 0 0 0 0 0 0 0 0 0 0 127 0" result="hardAlpha"/>
<feOffset dy="5.03715"/>
<feGaussianBlur stdDeviation="2.51858"/>
<feComposite in2="hardAlpha" operator="out"/>
<feColorMatrix type="matrix" values="0 0 0 0 0 0 0 0 0 0 0 0 0 0 0 0 0 0 0.25 0"/>
<feBlend mode="normal" in2="BackgroundImageFix" result="effect1_dropShadow_12407_67905"/>
<feBlend mode="normal" in="SourceGraphic" in2="effect1_dropShadow_12407_67905" result="shape"/>
</filter>
<linearGradient id="paint0_linear_12407_67905" x1="75.8633" y1="47.5298" x2="130.863" y2="47.5298" gradientUnits="userSpaceOnUse">
<stop stop-color="#6CAFFD"/>
<stop offset="1" stop-color="#426EFF"/>
</linearGradient>
<linearGradient id="paint1_linear_12407_67905" x1="103.363" y1="24.0004" x2="103.363" y2="46.7231" gradientUnits="userSpaceOnUse">
<stop stop-color="white"/>
<stop offset="1" stop-color="white" stop-opacity="0"/>
</linearGradient>
<radialGradient id="paint2_radial_12407_67905" cx="0" cy="0" r="1" gradientUnits="userSpaceOnUse" gradientTransform="translate(103.363 39.5298) rotate(90) scale(3.69748 12.7101)">
<stop stop-color="white"/>
<stop offset="1" stop-color="white" stop-opacity="0"/>
</radialGradient>
<linearGradient id="paint3_linear_12407_67905" x1="87.5366" y1="58.606" x2="93.9311" y2="39.4083" gradientUnits="userSpaceOnUse">
<stop/>
<stop offset="1" stop-opacity="0"/>
</linearGradient>
<linearGradient id="paint4_linear_12407_67905" x1="48" y1="68.53" x2="106.059" y2="68.53" gradientUnits="userSpaceOnUse">
<stop stop-color="#616588"/>
<stop offset="1" stop-color="#444A74"/>
</linearGradient>
<radialGradient id="paint5_radial_12407_67905" cx="0" cy="0" r="1" gradientUnits="userSpaceOnUse" gradientTransform="translate(77.0295 39.5005) rotate(90) scale(64.4015)">
<stop stop-color="white"/>
<stop offset="1" stop-color="white" stop-opacity="0"/>
</radialGradient>
<linearGradient id="paint6_linear_12407_67905" x1="77.0295" y1="-16.8508" x2="77.0295" y2="65.6026" gradientUnits="userSpaceOnUse">
<stop stop-color="white"/>
<stop offset="1" stop-color="white" stop-opacity="0"/>
</linearGradient>
<radialGradient id="paint7_radial_12407_67905" cx="0" cy="0" r="1" gradientUnits="userSpaceOnUse" gradientTransform="translate(77.0295 39.5005) rotate(90) scale(13.417)">
<stop stop-color="white"/>
<stop offset="1" stop-color="white" stop-opacity="0"/>
</radialGradient>
<linearGradient id="paint8_linear_12407_67905" x1="22.9863" y1="44.3547" x2="45.8336" y2="4.04447" gradientUnits="userSpaceOnUse">
<stop offset="0.235" stop-color="white"/>
<stop offset="1" stop-color="white" stop-opacity="0"/>
</linearGradient>
<linearGradient id="paint9_linear_12407_67905" x1="22.9863" y1="44.3547" x2="45.8336" y2="4.04447" gradientUnits="userSpaceOnUse">
<stop offset="0.235" stop-color="white"/>
<stop offset="1" stop-color="white" stop-opacity="0"/>
</linearGradient>
<linearGradient id="paint10_linear_12407_67905" x1="29.6458" y1="94.832" x2="30.7659" y2="113.94" gradientUnits="userSpaceOnUse">
<stop stop-color="white"/>
<stop offset="1" stop-color="#D4D4EF"/>
</linearGradient>
<linearGradient id="paint11_linear_12407_67905" x1="120.087" y1="29.1878" x2="120.886" y2="42.806" gradientUnits="userSpaceOnUse">
<stop stop-color="white"/>
<stop offset="1" stop-color="#D4D4EF"/>
</linearGradient>
<clipPath id="clip0_12407_67905">
<rect width="134" height="134" fill="white"/>
</clipPath>
<clipPath id="clip1_12407_67905">
<rect x="37" y="28.5" width="80" height="80" rx="40" fill="white"/>
</clipPath>
</defs>
</svg>
