<svg xmlns="http://www.w3.org/2000/svg" width="16" height="16" viewBox="0 0 16 16" fill="none">
    <path d="M3.45603 2.29065L3.7375 2.84307L3.7375 2.84307L3.45603 2.29065ZM2.29065 3.45603L1.73823 3.17455L1.73823 3.17455L2.29065 3.45603ZM12.544 13.7094L12.8254 14.2618L12.544 13.7094ZM13.7094 12.544L13.1569 12.2625L13.7094 12.544ZM3.45603 13.7094L3.7375 13.1569L3.45603 13.7094ZM2.29065 12.544L2.84307 12.2625H2.84307L2.29065 12.544ZM14.62 8C14.62 7.65758 14.3424 7.38 14 7.38C13.6576 7.38 13.38 7.65758 13.38 8H14.62ZM8 2.62C8.34242 2.62 8.62 2.34242 8.62 2C8.62 1.65758 8.34242 1.38 8 1.38V2.62ZM8.16882 6.99773L8.757 7.19379V7.19379L8.16882 6.99773ZM8.47734 6.07214L7.88916 5.87608L7.88916 5.87608L8.47734 6.07214ZM8.7957 5.55703L9.2341 5.99544L9.2341 5.99544L8.7957 5.55703ZM11.8703 2.48247L11.4319 2.04407L11.4319 2.04407L11.8703 2.48247ZM13.5175 4.12974L13.9559 4.56815V4.56815L13.5175 4.12974ZM10.443 7.2043L10.0046 6.7659H10.0046L10.443 7.2043ZM9.92786 7.52266L10.1239 8.11084H10.1239L9.92786 7.52266ZM9.00227 7.83118L9.19833 8.41937L9.19834 8.41937L9.00227 7.83118ZM10.2741 7.36192L10.6475 7.85687V7.85687L10.2741 7.36192ZM10.1444 7.44211L9.86863 6.88679L9.86863 6.88679L10.1444 7.44211ZM13.5175 2.48247L13.0791 2.92088V2.92088L13.5175 2.48247ZM13.9144 2.9404L14.4699 2.66511V2.66511L13.9144 2.9404ZM13.9144 3.67181L14.4699 3.9471V3.9471L13.9144 3.67181ZM12.3282 2.08564L12.6035 2.64117V2.64117L12.3282 2.08564ZM13.0596 2.08564L12.7843 2.64117L12.7843 2.64117L13.0596 2.08564ZM8.55789 5.85565L9.11321 6.13137L8.55789 5.85565ZM8.63808 5.7259L8.14313 5.35251L8.14313 5.35251L8.63808 5.7259ZM8.01533 7.7351L8.59931 7.52685L8.01533 7.7351ZM8.2649 7.98467L8.05666 8.56865L8.2649 7.98467ZM6.26667 14V14.62H9.73333V14V13.38H6.26667V14ZM2 6.26667H1.38V9.73333H2H2.62V6.26667H2ZM6.26667 2V1.38C5.53016 1.38 4.94049 1.37952 4.46472 1.41839C3.9817 1.45785 3.56174 1.54094 3.17455 1.73823L3.45603 2.29065L3.7375 2.84307C3.92075 2.74971 4.15936 2.68747 4.56569 2.65427C4.97926 2.62048 5.5097 2.62 6.26667 2.62V2ZM2 6.26667H2.62C2.62 5.5097 2.62048 4.97926 2.65427 4.56569C2.68747 4.15936 2.74971 3.92075 2.84307 3.7375L2.29065 3.45603L1.73823 3.17455C1.54094 3.56174 1.45785 3.9817 1.41839 4.46472C1.37952 4.94049 1.38 5.53016 1.38 6.26667H2ZM3.45603 2.29065L3.17455 1.73823C2.55612 2.05333 2.05333 2.55613 1.73823 3.17455L2.29065 3.45603L2.84307 3.7375C3.03929 3.35239 3.35239 3.03929 3.7375 2.84307L3.45603 2.29065ZM9.73333 14V14.62C10.4698 14.62 11.0595 14.6205 11.5353 14.5816C12.0183 14.5421 12.4383 14.4591 12.8254 14.2618L12.544 13.7094L12.2625 13.1569C12.0793 13.2503 11.8406 13.3125 11.4343 13.3457C11.0207 13.3795 10.4903 13.38 9.73333 13.38V14ZM14 9.73333H13.38C13.38 10.4903 13.3795 11.0207 13.3457 11.4343C13.3125 11.8406 13.2503 12.0793 13.1569 12.2625L13.7094 12.544L14.2618 12.8254C14.4591 12.4383 14.5421 12.0183 14.5816 11.5353C14.6205 11.0595 14.62 10.4698 14.62 9.73333H14ZM12.544 13.7094L12.8254 14.2618C13.4439 13.9467 13.9467 13.4439 14.2618 12.8254L13.7094 12.544L13.1569 12.2625C12.9607 12.6476 12.6476 12.9607 12.2625 13.1569L12.544 13.7094ZM6.26667 14V13.38C5.5097 13.38 4.97926 13.3795 4.56569 13.3457C4.15936 13.3125 3.92075 13.2503 3.7375 13.1569L3.45603 13.7094L3.17455 14.2618C3.56174 14.4591 3.9817 14.5421 4.46472 14.5816C4.94049 14.6205 5.53016 14.62 6.26667 14.62V14ZM2 9.73333H1.38C1.38 10.4698 1.37952 11.0595 1.41839 11.5353C1.45785 12.0183 1.54094 12.4383 1.73823 12.8254L2.29065 12.544L2.84307 12.2625C2.74971 12.0793 2.68747 11.8406 2.65427 11.4343C2.62048 11.0207 2.62 10.4903 2.62 9.73333H2ZM3.45603 13.7094L3.7375 13.1569C3.35239 12.9607 3.03929 12.6476 2.84307 12.2625L2.29065 12.544L1.73823 12.8254C2.05333 13.4439 2.55613 13.9467 3.17455 14.2618L3.45603 13.7094ZM14 9.73333H14.62V8H14H13.38V9.73333H14ZM6.26667 2V2.62H8V2V1.38H6.26667V2ZM8.16882 6.99773L8.757 7.19379L9.06553 6.2682L8.47734 6.07214L7.88916 5.87608L7.58063 6.80166L8.16882 6.99773ZM8.7957 5.55703L9.2341 5.99544L12.3087 2.92088L11.8703 2.48247L11.4319 2.04407L8.35729 5.11863L8.7957 5.55703ZM13.5175 4.12974L13.0791 3.69134L10.0046 6.7659L10.443 7.2043L10.8814 7.64271L13.9559 4.56815L13.5175 4.12974ZM9.92786 7.52266L9.7318 6.93447L8.80621 7.243L9.00227 7.83118L9.19834 8.41937L10.1239 8.11084L9.92786 7.52266ZM10.443 7.2043L10.0046 6.7659C9.96127 6.80919 9.9374 6.83298 9.91877 6.85061C9.9027 6.86582 9.89916 6.86813 9.90071 6.86696L10.2741 7.36192L10.6475 7.85687C10.7357 7.79036 10.811 7.71305 10.8814 7.64271L10.443 7.2043ZM9.92786 7.52266L10.1239 8.11084C10.2183 8.07938 10.3212 8.04654 10.4201 7.99743L10.1444 7.44211L9.86863 6.88679C9.87038 6.88592 9.86673 6.88805 9.84593 6.89563C9.82183 6.9044 9.78988 6.91511 9.7318 6.93447L9.92786 7.52266ZM10.2741 7.36192L9.90071 6.86696C9.89066 6.87455 9.87992 6.88118 9.86863 6.88679L10.1444 7.44211L10.4201 7.99743C10.5001 7.95771 10.5762 7.91066 10.6475 7.85687L10.2741 7.36192ZM13.5175 2.48247L13.0791 2.92088C13.1963 3.0381 13.2659 3.108 13.3152 3.16315C13.3615 3.21505 13.3639 3.22596 13.3588 3.21569L13.9144 2.9404L14.4699 2.66511C14.3533 2.42985 14.1451 2.23321 13.9559 2.04407L13.5175 2.48247ZM13.5175 4.12974L13.9559 4.56815C14.1451 4.379 14.3533 4.18237 14.4699 3.9471L13.9144 3.67181L13.3588 3.39652C13.3639 3.38626 13.3615 3.39716 13.3152 3.44906C13.2659 3.50421 13.1963 3.57411 13.0791 3.69134L13.5175 4.12974ZM13.9144 2.9404L13.3588 3.21569C13.3871 3.27266 13.3871 3.33955 13.3588 3.39652L13.9144 3.67181L14.4699 3.9471C14.67 3.54321 14.67 3.06901 14.4699 2.66511L13.9144 2.9404ZM11.8703 2.48247L12.3087 2.92088C12.4259 2.80366 12.4958 2.73408 12.5509 2.68484C12.6028 2.6385 12.6137 2.63608 12.6035 2.64117L12.3282 2.08564L12.0529 1.53011C11.8176 1.64669 11.621 1.85493 11.4319 2.04407L11.8703 2.48247ZM13.5175 2.48247L13.9559 2.04407C13.7668 1.85492 13.5702 1.64669 13.3349 1.53011L13.0596 2.08564L12.7843 2.64117C12.774 2.63608 12.7849 2.6385 12.8368 2.68484C12.892 2.73408 12.9619 2.80366 13.0791 2.92088L13.5175 2.48247ZM12.3282 2.08564L12.6035 2.64117C12.6604 2.61294 12.7273 2.61294 12.7843 2.64117L13.0596 2.08564L13.3349 1.53011C12.931 1.32996 12.4568 1.32996 12.0529 1.53011L12.3282 2.08564ZM8.47734 6.07214L9.06553 6.2682C9.08489 6.21013 9.09559 6.17817 9.10437 6.15407C9.11195 6.13327 9.11408 6.12962 9.11321 6.13137L8.55789 5.85565L8.00257 5.57993C7.95346 5.67885 7.92062 5.78171 7.88916 5.87608L8.47734 6.07214ZM8.7957 5.55703L8.35729 5.11863C8.28695 5.18897 8.20964 5.26434 8.14313 5.35251L8.63808 5.7259L9.13304 6.09929C9.13186 6.10084 9.13418 6.0973 9.14939 6.08123C9.16702 6.0626 9.19081 6.03873 9.2341 5.99544L8.7957 5.55703ZM8.55789 5.85565L9.11321 6.13137C9.11881 6.12008 9.12545 6.10934 9.13304 6.09929L8.63808 5.7259L8.14313 5.35251C8.08934 5.42381 8.04229 5.49994 8.00257 5.57993L8.55789 5.85565ZM8.16882 6.99773L7.58063 6.80166C7.51748 6.99113 7.45591 7.17387 7.42032 7.3253C7.3869 7.46754 7.3446 7.70007 7.43135 7.94334L8.01533 7.7351L8.59931 7.52685C8.62014 7.58526 8.6204 7.62978 8.61988 7.64361C8.61946 7.65448 8.61855 7.64683 8.62745 7.60896C8.647 7.52575 8.68603 7.4067 8.757 7.19379L8.16882 6.99773ZM9.00227 7.83118L8.80622 7.243C8.5933 7.31397 8.47425 7.353 8.39104 7.37255C8.35317 7.38145 8.34552 7.38054 8.35639 7.38012C8.37022 7.3796 8.41474 7.37986 8.47315 7.40069L8.2649 7.98467L8.05666 8.56865C8.29993 8.6554 8.53247 8.6131 8.6747 8.57967C8.82613 8.54409 9.00887 8.48252 9.19833 8.41937L9.00227 7.83118ZM8.01533 7.7351L7.43135 7.94334C7.53538 8.23506 7.76494 8.46462 8.05666 8.56865L8.2649 7.98467L8.47315 7.40069C8.53201 7.42168 8.57833 7.46799 8.59931 7.52685L8.01533 7.7351Z" fill="inherit"/>
</svg>