<svg xmlns="http://www.w3.org/2000/svg" width="20" height="20" viewBox="0 0 20 20" fill="none">
    <path d="M7.34555 8.75838C6.89534 7.8597 5.96585 7.24277 4.89227 7.24277C3.37777 7.24277 2.15002 8.47052 2.15002 9.98502C2.15002 11.4995 3.37777 12.7273 4.89227 12.7273C5.96585 12.7273 6.89534 12.1103 7.34555 11.2117M7.34555 8.75838C7.53046 9.12748 7.63452 9.5441 7.63452 9.98502C7.63452 10.426 7.53046 10.8426 7.34555 11.2117M7.34555 8.75838L12.6245 6.11891M7.34555 11.2117L12.6245 13.8511M12.6245 6.11891C13.0747 7.0176 14.0042 7.63452 15.0778 7.63452C16.5923 7.63452 17.82 6.40678 17.82 4.89227C17.82 3.37777 16.5923 2.15002 15.0778 2.15002C13.5633 2.15002 12.3355 3.37777 12.3355 4.89227C12.3355 5.3332 12.4396 5.74982 12.6245 6.11891ZM12.6245 13.8511C12.4396 14.2202 12.3355 14.6368 12.3355 15.0778C12.3355 16.5923 13.5633 17.82 15.0778 17.82C16.5923 17.82 17.82 16.5923 17.82 15.0778C17.82 13.5633 16.5923 12.3355 15.0778 12.3355C14.0042 12.3355 13.0747 12.9525 12.6245 13.8511Z" stroke="inherit" stroke-width="1.4103" stroke-linecap="round"/>
</svg>