<svg xmlns="http://www.w3.org/2000/svg" width="18" height="18" viewBox="0 0 18 18" fill="none">
    <g clip-path="url(#clip0_14468_16683)">
        <path d="M6.75 17.25H11.25C13.3502 17.25 14.4003 17.25 15.2025 16.8413C15.9081 16.4817 16.4817 15.9081 16.8413 15.2025C17.25 14.4003 17.25 13.3502 17.25 11.25V6.75C17.25 4.6498 17.25 3.5997 16.8413 2.79754C16.4817 2.09193 15.9081 1.51825 15.2025 1.15873C14.4003 0.75 13.3502 0.75 11.25 0.75H6.75M6.75 17.25C4.6498 17.25 3.5997 17.25 2.79754 16.8413C2.09193 16.4817 1.51825 15.9081 1.15873 15.2025C0.75 14.4003 0.75 13.3502 0.75 11.25V6.75C0.75 4.6498 0.75 3.5997 1.15873 2.79754C1.51825 2.09193 2.09193 1.51825 2.79754 1.15873C3.5997 0.75 4.6498 0.75 6.75 0.75M6.75 17.25V0.75" stroke="inherit" stroke-width="1.5" stroke-linecap="round"/>
    </g>
    <defs>
        <clipPath id="clip0_14468_16683">
            <rect width="18" height="18" fill="white"/>
        </clipPath>
    </defs>
</svg>