<svg xmlns="http://www.w3.org/2000/svg" fill="none" viewBox="0 0 292 60">
  <g filter="url(#a2)">
    <g clip-path="url(#b2)">
      <rect width="52" height="52" y="4" fill="#F6F6F6" rx="26"/>
      <path fill="url(#c2)" d="M60.95 11.23V21.5H25.33V11.23h35.62Z"/>
      <path stroke="url(#d2)" fill="none" stroke-width=".13" d="M60.95 11.23V21.5H25.33V11.23h35.62Z"/>
      <path stroke="#fff" fill="none" stroke-opacity=".2" stroke-width=".13" d="M60.95 11.23V21.5H25.33V11.23h35.62Z"/>
      <path stroke="url(#e2)" fill="none" stroke-width=".13" d="M60.95 11.23V21.5H25.33V11.23h35.62Z"/>
      <path fill="url(#f2)" fill-opacity=".2" d="M52 11.16H25.35v10.4H52v-10.4Z"/>
      <g filter="url(#g2)">
        <path fill="url(#h2)" d="M26.02 48.89A18.9 18.9 0 0 1 7.15 30.02c0-10.4 8.46-18.87 18.87-18.87 10.4 0 18.87 8.47 18.87 18.87a18.9 18.9 0 0 1-18.87 18.87Zm0-27.31a8.45 8.45 0 0 0 0 16.88 8.45 8.45 0 0 0 0-16.88Z"/>
        <path fill="url(#i2)" fill-opacity=".1" d="M26.02 48.89A18.9 18.9 0 0 1 7.15 30.02c0-10.4 8.46-18.87 18.87-18.87 10.4 0 18.87 8.47 18.87 18.87a18.9 18.9 0 0 1-18.87 18.87Zm0-27.31a8.45 8.45 0 0 0 0 16.88 8.45 8.45 0 0 0 0-16.88Z"/>
      </g>
      <path stroke="url(#j2)" fill="none" stroke-width=".13" d="M26.02 11.22c10.37 0 18.8 8.43 18.8 18.8 0 10.37-8.43 18.8-18.8 18.8a18.83 18.83 0 0 1-18.8-18.8c0-10.37 8.43-18.8 18.8-18.8Zm0 10.3a8.52 8.52 0 0 0 0 17 8.52 8.52 0 0 0 0-17Z"/>
      <path stroke="#fff" fill="none" stroke-opacity=".2" stroke-width=".13" d="M26.02 11.22c10.37 0 18.8 8.43 18.8 18.8 0 10.37-8.43 18.8-18.8 18.8a18.83 18.83 0 0 1-18.8-18.8c0-10.37 8.43-18.8 18.8-18.8Zm0 10.3a8.52 8.52 0 0 0 0 17 8.52 8.52 0 0 0 0-17Z"/>
      <path stroke="url(#k2)" fill="none" stroke-width=".13" d="M26.02 11.22c10.37 0 18.8 8.43 18.8 18.8 0 10.37-8.43 18.8-18.8 18.8a18.83 18.83 0 0 1-18.8-18.8c0-10.37 8.43-18.8 18.8-18.8Zm0 10.3a8.52 8.52 0 0 0 0 17 8.52 8.52 0 0 0 0-17Z"/>
    </g>
  </g>
  <path fill="inherit" d="M84.66 45.67c-2.5 0-4.64-.43-6.43-1.3-1.79-.87-3.2-2.07-4.24-3.61-1-1.57-1.6-3.39-1.76-5.46l5.54-.34c.28 1.93 1 3.42 2.14 4.45 1.15 1.04 2.76 1.56 4.83 1.56 1.74 0 3.1-.32 4.08-.97a3.3 3.3 0 0 0 1.47-2.9c0-.75-.19-1.42-.55-2.01a4.93 4.93 0 0 0-2.14-1.64c-1.04-.5-2.56-1-4.58-1.47a30.73 30.73 0 0 1-5.96-1.89 7.69 7.69 0 0 1-3.24-2.69 7.9 7.9 0 0 1-.96-4.07c0-1.74.42-3.26 1.26-4.58a8.44 8.44 0 0 1 3.7-3.1 13.63 13.63 0 0 1 5.79-1.14c2.35 0 4.35.43 6 1.3 1.68.84 3 2 3.95 3.49.95 1.48 1.53 3.19 1.72 5.12l-5.5.25a6.28 6.28 0 0 0-1.89-3.95c-1.03-1-2.49-1.5-4.37-1.5-1.6 0-2.85.36-3.78 1.08a3.46 3.46 0 0 0-1.34 2.82c0 .81.18 1.48.55 2.01.39.54 1.07 1 2.05 1.39.98.4 2.36.78 4.12 1.18 2.69.58 4.8 1.31 6.34 2.18a8.26 8.26 0 0 1 3.36 2.98c.67 1.15 1.01 2.47 1.01 3.95 0 1.82-.46 3.4-1.39 4.75a9 9 0 0 1-3.9 3.06 15.2 15.2 0 0 1-5.88 1.05ZM98.79 45V22.57h5.38V45h-5.38Zm-.08-25.41V14.8h5.58v4.79h-5.58Zm19.64 32.21c-2.94 0-5.25-.58-6.93-1.76a8 8 0 0 1-3.28-4.62l5.55-.38c.28.87.75 1.53 1.42 1.98.7.47 1.78.71 3.24.71 1.65 0 2.92-.38 3.82-1.13.9-.73 1.34-1.88 1.34-3.45V40.3a6.13 6.13 0 0 1-2.56 2.64c-1.17.65-2.49.97-3.95.97-1.84 0-3.5-.45-4.95-1.35a9.5 9.5 0 0 1-3.36-3.82 12.8 12.8 0 0 1-1.22-5.71c0-2.16.4-4.05 1.22-5.67A9.56 9.56 0 0 1 112 23.5a8.65 8.65 0 0 1 4.91-1.43c1.62 0 3.02.36 4.2 1.09a6.4 6.4 0 0 1 2.56 2.9v-3.49h5.25v20.46c0 2.88-.96 5.06-2.9 6.55-1.93 1.48-4.49 2.22-7.68 2.22Zm-.09-12.1c1.63 0 2.92-.58 3.87-1.76.95-1.2 1.43-2.85 1.43-4.95.02-2.07-.45-3.71-1.43-4.92a4.67 4.67 0 0 0-3.87-1.8c-1.65 0-2.94.61-3.86 1.85-.9 1.2-1.34 2.82-1.34 4.87 0 2.04.46 3.68 1.38 4.91a4.62 4.62 0 0 0 3.82 1.8ZM133.6 45V22.57h4.87l.12 3.74a6.83 6.83 0 0 1 2.44-3.1 6.4 6.4 0 0 1 3.74-1.14c1.65 0 3.02.4 4.11 1.22a6.6 6.6 0 0 1 2.4 3.4 6.68 6.68 0 0 1 2.4-3.45 6.85 6.85 0 0 1 4.02-1.17c2.33 0 4.15.73 5.46 2.18 1.35 1.46 2.02 3.57 2.02 6.34V45h-5.38V31.98c0-3.7-1.27-5.54-3.82-5.54-1.29 0-2.3.5-3.02 1.5-.73.99-1.1 2.39-1.1 4.2V45h-5V32.15c0-1.82-.27-3.22-.83-4.2-.56-1.01-1.53-1.51-2.9-1.51-1.29 0-2.31.5-3.07 1.5-.72 1.02-1.09 2.42-1.09 4.2V45h-5.37Zm42.28.5c-2.35 0-4.24-.53-5.66-1.6a5.32 5.32 0 0 1-2.15-4.53c0-1.93.6-3.44 1.8-4.53 1.21-1.1 3.05-1.88 5.51-2.36l7.44-1.47c0-3.19-1.43-4.78-4.29-4.78-1.31 0-2.35.3-3.1.92a4.4 4.4 0 0 0-1.48 2.56l-5.5-.25a8.48 8.48 0 0 1 3.28-5.46c1.73-1.29 4-1.93 6.8-1.93 3.2 0 5.6.81 7.22 2.43 1.63 1.6 2.44 3.9 2.44 6.9v8.14c0 .59.1 1 .3 1.22.22.22.54.33.96.33h.72V45a8.8 8.8 0 0 1-1.94.17 5.94 5.94 0 0 1-3.1-.76c-.84-.53-1.38-1.48-1.6-2.85a6.36 6.36 0 0 1-2.9 2.85 9.82 9.82 0 0 1-4.75 1.1Zm1.1-3.9c1.79 0 3.2-.52 4.24-1.56a5.48 5.48 0 0 0 1.6-4.11v-1.26l-5.8 1.17c-1.2.26-2.07.63-2.6 1.14-.5.47-.76 1.1-.76 1.89 0 1.82 1.1 2.73 3.32 2.73Zm37.5 4.07c-2.71 0-5.1-.61-7.18-1.85a13.04 13.04 0 0 1-4.87-5.33 18.32 18.32 0 0 1-1.77-8.36c0-3.19.58-5.95 1.73-8.27a12.66 12.66 0 0 1 4.83-5.42 13.77 13.77 0 0 1 7.35-1.93c3.8 0 6.74.95 8.82 2.85 2.1 1.88 3.47 4.51 4.11 7.9l-5.71.3a8.12 8.12 0 0 0-2.35-4.63c-1.2-1.12-2.83-1.68-4.87-1.68-2.55 0-4.57.98-6.05 2.94-1.46 1.96-2.19 4.61-2.19 7.94 0 3.36.75 6 2.23 7.94a7.17 7.17 0 0 0 5.96 2.86c2.22 0 3.92-.6 5.13-1.81a9 9 0 0 0 2.3-5.04l5.72.3c-.59 3.5-1.99 6.25-4.2 8.27-2.21 2.01-5.2 3.02-8.99 3.02Zm16.5-.67V15.18h5.37v10.37a5.86 5.86 0 0 1 2.6-2.6 8 8 0 0 1 3.78-.88c2.5 0 4.38.8 5.67 2.4 1.29 1.56 1.93 3.6 1.93 6.12V45h-5.37V31.9c0-3.64-1.28-5.46-3.82-5.46-1.49 0-2.66.47-3.53 1.42-.84.96-1.26 2.34-1.26 4.16V45h-5.38Zm30.06.5c-2.35 0-4.24-.53-5.67-1.6a5.32 5.32 0 0 1-2.14-4.53c0-1.93.6-3.44 1.8-4.53 1.2-1.1 3.04-1.88 5.5-2.36l7.44-1.47c0-3.19-1.43-4.78-4.29-4.78-1.31 0-2.35.3-3.1.92a4.4 4.4 0 0 0-1.47 2.56l-5.5-.25a8.48 8.48 0 0 1 3.27-5.46c1.74-1.29 4-1.93 6.8-1.93 3.2 0 5.6.81 7.23 2.43 1.62 1.6 2.43 3.9 2.43 6.9v8.14c0 .59.1 1 .3 1.22.22.22.54.33.96.33h.72V45a8.8 8.8 0 0 1-1.93.17 5.94 5.94 0 0 1-3.11-.76c-.84-.53-1.37-1.48-1.6-2.85a6.36 6.36 0 0 1-2.9 2.85 9.82 9.82 0 0 1-4.74 1.1Zm1.09-3.9c1.8 0 3.2-.52 4.24-1.56a5.48 5.48 0 0 0 1.6-4.11v-1.26l-5.8 1.17c-1.2.26-2.07.63-2.6 1.14-.5.47-.76 1.1-.76 1.89 0 1.82 1.1 2.73 3.32 2.73Zm23.3 3.4c-2.24 0-3.9-.5-4.96-1.51-1.03-1.04-1.55-2.68-1.55-4.92V26.73h-3.53v-4.16h3.53v-5.25h5.37v5.25h5.93v4.16h-5.93v11.34c0 1.06.23 1.8.68 2.18.47.4 1.17.6 2.1.6h3.15V45h-4.8Z" opacity=".9"/>
  <defs>
    <linearGradient id="c2" x1="25.26" x2="61.01" y1="16.37" y2="16.37" gradientUnits="userSpaceOnUse">
      <stop stop-color="#6CAFFD"/>
      <stop offset="1" stop-color="#426EFF"/>
    </linearGradient>
    <linearGradient id="d2" x1="43.14" x2="43.14" y1="1.08" y2="15.85" gradientUnits="userSpaceOnUse">
      <stop stop-color="#fff"/>
      <stop offset="1" stop-color="#fff" stop-opacity="0"/>
    </linearGradient>
    <linearGradient id="f2" x1="32.85" x2="37.01" y1="23.57" y2="11.09" gradientUnits="userSpaceOnUse">
      <stop/>
      <stop offset="1" stop-opacity="0"/>
    </linearGradient>
    <linearGradient id="h2" x1="7.15" x2="44.89" y1="30.02" y2="30.02" gradientUnits="userSpaceOnUse">
      <stop stop-color="#616588"/>
      <stop offset="1" stop-color="#444A74"/>
    </linearGradient>
    <linearGradient id="j2" x1="26.02" x2="26.02" y1="-25.48" y2="28.12" gradientUnits="userSpaceOnUse">
      <stop stop-color="#fff"/>
      <stop offset="1" stop-color="#fff" stop-opacity="0"/>
    </linearGradient>
    <radialGradient id="e2" cx="0" cy="0" r="1" gradientTransform="matrix(0 2.4 -8.26 0 43.14 11.17)" gradientUnits="userSpaceOnUse">
      <stop stop-color="#fff"/>
      <stop offset="1" stop-color="#fff" stop-opacity="0"/>
    </radialGradient>
    <radialGradient id="i2" cx="0" cy="0" r="1" gradientTransform="rotate(90 7.43 18.58) scale(41.86)" gradientUnits="userSpaceOnUse">
      <stop stop-color="#fff"/>
      <stop offset="1" stop-color="#fff" stop-opacity="0"/>
    </radialGradient>
    <radialGradient id="k2" cx="0" cy="0" r="1" gradientTransform="rotate(90 7.43 18.58) scale(8.72)" gradientUnits="userSpaceOnUse">
      <stop stop-color="#fff"/>
      <stop offset="1" stop-color="#fff" stop-opacity="0"/>
    </radialGradient>
    <filter id="a2" width="52.43" height="52.43" x="-.43" y="3.57" color-interpolation-filters="sRGB" filterUnits="userSpaceOnUse">
      <feFlood flood-opacity="0" result="BackgroundImageFix"/>
      <feBlend in="SourceGraphic" in2="BackgroundImageFix" result="shape"/>
      <feColorMatrix in="SourceAlpha" result="hardAlpha" values="0 0 0 0 0 0 0 0 0 0 0 0 0 0 0 0 0 0 127 0"/>
      <feOffset dx="-.43" dy="-.43"/>
      <feGaussianBlur stdDeviation=".87"/>
      <feComposite in2="hardAlpha" k2="-1" k3="1" operator="arithmetic"/>
      <feColorMatrix values="0 0 0 0 0.309804 0 0 0 0 0.333333 0 0 0 0 0.486275 0 0 0 0.2 0"/>
      <feBlend in2="shape" result="effect1_innerShadow_2017_4065"/>
    </filter>
    <filter id="g2" width="37.74" height="38.78" x="7.15" y="10.63" color-interpolation-filters="sRGB" filterUnits="userSpaceOnUse">
      <feFlood flood-opacity="0" result="BackgroundImageFix"/>
      <feBlend in="SourceGraphic" in2="BackgroundImageFix" result="shape"/>
      <feColorMatrix in="SourceAlpha" result="hardAlpha" values="0 0 0 0 0 0 0 0 0 0 0 0 0 0 0 0 0 0 127 0"/>
      <feOffset dy="-.52"/>
      <feGaussianBlur stdDeviation=".26"/>
      <feComposite in2="hardAlpha" k2="-1" k3="1" operator="arithmetic"/>
      <feColorMatrix values="0 0 0 0 1 0 0 0 0 1 0 0 0 0 1 0 0 0 0.1 0"/>
      <feBlend in2="shape" result="effect1_innerShadow_2017_4065"/>
      <feColorMatrix in="SourceAlpha" result="hardAlpha" values="0 0 0 0 0 0 0 0 0 0 0 0 0 0 0 0 0 0 127 0"/>
      <feOffset dy=".52"/>
      <feGaussianBlur stdDeviation=".26"/>
      <feComposite in2="hardAlpha" k2="-1" k3="1" operator="arithmetic"/>
      <feColorMatrix values="0 0 0 0 1 0 0 0 0 1 0 0 0 0 1 0 0 0 0.1 0"/>
      <feBlend in2="effect1_innerShadow_2017_4065" result="effect2_innerShadow_2017_4065"/>
    </filter>
    <clipPath id="b2">
      <rect width="52" height="52" y="4" fill="#fff" rx="26"/>
    </clipPath>
  </defs>
</svg>
