<svg xmlns="http://www.w3.org/2000/svg" width="25" height="24" viewBox="0 0 25 24" fill="none">
    <path d="M6.53612 14.1181C6.72812 13.5961 7.46612 13.5961 7.66412 14.1181L8.30012 15.8401C8.36012 16.0021 8.49212 16.1341 8.65412 16.1941L10.3761 16.8301C10.8981 17.0221 10.8981 17.7601 10.3761 17.9581L8.65412 18.5941C8.49212 18.6541 8.36012 18.7861 8.30012 18.9481L7.66412 20.6701C7.47212 21.1921 6.73412 21.1921 6.53612 20.6701L5.90012 18.9481C5.84012 18.7861 5.70812 18.6541 5.54612 18.5941L3.82412 17.9581C3.30212 17.7661 3.30212 17.0281 3.82412 16.8301L5.54612 16.1941C5.70812 16.1341 5.84012 16.0021 5.90012 15.8401L6.53612 14.1181Z" fill="#0D0D17" fill-opacity="0.7"/>
    <path d="M13.454 4.08022C13.742 3.29422 14.852 3.29422 15.14 4.08022L16.424 7.54222C16.514 7.78822 16.712 7.98022 16.958 8.07622L20.42 9.36022C21.206 9.64822 21.206 10.7582 20.42 11.0462L16.958 12.3302C16.712 12.4202 16.52 12.6182 16.424 12.8642L15.14 16.3262C14.852 17.1122 13.742 17.1122 13.454 16.3262L12.17 12.8642C12.08 12.6182 11.882 12.4262 11.636 12.3302L8.17397 11.0462C7.38797 10.7582 7.38797 9.64822 8.17397 9.36022L11.636 8.07622C11.882 7.98622 12.074 7.78822 12.17 7.54222L13.454 4.08022Z" fill="#0D0D17"/>
</svg>