<svg xmlns="http://www.w3.org/2000/svg" width="20" height="21" viewBox="0 0 20 21" fill="none">
    <path d="M5.0301 12.265C5.1901 11.83 5.8051 11.83 5.9701 12.265L6.5001 13.7C6.5501 13.835 6.6601 13.945 6.7951 13.995L8.2301 14.525C8.6651 14.685 8.6651 15.3 8.2301 15.465L6.7951 15.995C6.6601 16.045 6.5501 16.155 6.5001 16.29L5.9701 17.725C5.8101 18.16 5.1951 18.16 5.0301 17.725L4.5001 16.29C4.4501 16.155 4.3401 16.045 4.2051 15.995L2.7701 15.465C2.3351 15.305 2.3351 14.69 2.7701 14.525L4.2051 13.995C4.3401 13.945 4.4501 13.835 4.5001 13.7L5.0301 12.265Z" fill="inherit"/>
    <path d="M10.7951 3.89994C11.0351 3.24494 11.9601 3.24494 12.2001 3.89994L13.2701 6.78494C13.3451 6.98994 13.5101 7.14994 13.7151 7.22994L16.6001 8.29994C17.2551 8.53994 17.2551 9.46494 16.6001 9.70494L13.7151 10.7749C13.5101 10.8499 13.3501 11.0149 13.2701 11.2199L12.2001 14.1049C11.9601 14.7599 11.0351 14.7599 10.7951 14.1049L9.72506 11.2199C9.65006 11.0149 9.48506 10.8549 9.28006 10.7749L6.39506 9.70494C5.74006 9.46494 5.74006 8.53994 6.39506 8.29994L9.28006 7.22994C9.48506 7.15494 9.64506 6.98994 9.72506 6.78494L10.7951 3.89994Z" fill="inherit"/>
</svg>