<svg xmlns="http://www.w3.org/2000/svg" width="24" height="24" viewBox="0 0 24 24" fill="none">
    <path d="M3.56527 17.5645C3.25363 17.8762 2.74723 17.8762 2.43559 17.5645C2.12427 17.253 2.1244 16.7476 2.43559 16.4359L3.56527 17.5645ZM20.2024 13V8.92658L13.0645 16.0645C12.7529 16.3759 12.2476 16.376 11.936 16.0645L8.50004 12.6286L3.56527 17.5645L3.00043 16.9997L2.43559 16.4359L7.93636 10.9352L8.06175 10.8332C8.37139 10.6291 8.79231 10.6628 9.06488 10.9352L12.4997 14.3711L19.0739 7.79806H15.0005C14.5597 7.79806 14.2024 7.44074 14.2024 7.00001C14.2024 6.55929 14.5597 6.20197 15.0005 6.20197H21.0005L21.1609 6.21838C21.5248 6.2927 21.7985 6.6143 21.7985 7.00001V13C21.7985 13.4407 21.4411 13.7981 21.0005 13.7981C20.5597 13.7981 20.2024 13.4407 20.2024 13Z" fill="currentColor"/>
</svg>