<svg xmlns="http://www.w3.org/2000/svg" width="20" height="20" viewBox="0 0 20 20" fill="none">
    <path d="M13.3088 2.20418C13.3143 2.1773 13.3528 2.1773 13.3583 2.20418C13.6435 3.59959 14.734 4.69008 16.1294 4.97529C16.1562 4.98079 16.1562 5.0192 16.1294 5.0247C14.734 5.30991 13.6435 6.4004 13.3583 7.7958C13.3528 7.82269 13.3143 7.82269 13.3088 7.7958C13.0236 6.4004 11.9331 5.30991 10.5377 5.0247C10.5109 5.0192 10.5109 4.98079 10.5377 4.97529C11.9331 4.69008 13.0236 3.59959 13.3088 2.20418Z" fill="currentColor" stroke="currentColor" stroke-width="1.25"/>
    <path d="M10.1813 8.23008C10.2334 7.97498 10.5979 7.97498 10.6501 8.23008C10.7652 8.79349 11.2055 9.2338 11.7689 9.34895C12.024 9.40109 12.024 9.76558 11.7689 9.81772C11.2055 9.93288 10.7652 10.3732 10.6501 10.9366C10.5979 11.1917 10.2334 11.1917 10.1813 10.9366C10.0661 10.3732 9.62583 9.93288 9.06242 9.81772C8.80732 9.76558 8.80732 9.40109 9.06242 9.34895C9.62583 9.2338 10.0661 8.79349 10.1813 8.23008Z" fill="currentColor" stroke="currentColor" stroke-width="1.25"/>
    <path fill-rule="evenodd" clip-rule="evenodd" d="M9.79202 2.67826C9.80198 3.0233 9.53034 3.31108 9.18531 3.32103C7.69733 3.36398 6.224 3.95276 5.0887 5.08807C2.72928 7.44748 2.72928 11.2729 5.0887 13.6323C7.44812 15.9917 11.2735 15.9917 13.6329 13.6323C14.8573 12.4079 15.4463 10.79 15.3999 9.18467C15.39 8.83963 15.6616 8.55185 16.0066 8.5419C16.3517 8.53194 16.6395 8.80357 16.6494 9.14861C16.6996 10.8885 16.1298 12.6448 14.94 14.0555L17.4631 16.5785C17.7071 16.8226 17.7071 17.2184 17.4631 17.4624C17.219 17.7065 16.8233 17.7065 16.5792 17.4624L14.0562 14.9394C11.1913 17.3559 6.90351 17.2149 4.20481 14.5162C1.35724 11.6686 1.35724 7.05175 4.20481 4.20418C5.57456 2.83444 7.35508 2.12333 9.14925 2.07155C9.49428 2.0616 9.78206 2.33323 9.79202 2.67826Z" fill="currentColor"/>
</svg>