<svg xmlns="http://www.w3.org/2000/svg" width="20" height="20" viewBox="0 0 20 20" fill="none">
    <circle cx="6.25" cy="6.25" r="1.25" stroke="currentColor" stroke-width="1.3" stroke-linecap="round" stroke-linejoin="round"/>
    <path d="M2.08301 9.99999C2.08301 6.26804 2.08301 4.40207 3.24238 3.2427C4.40175 2.08333 6.26772 2.08333 9.99967 2.08333C13.7316 2.08333 15.5976 2.08333 16.757 3.2427C17.9163 4.40207 17.9163 6.26804 17.9163 9.99999C17.9163 13.7319 17.9163 15.5979 16.757 16.7573C15.5976 17.9167 13.7316 17.9167 9.99967 17.9167C6.26772 17.9167 4.40175 17.9167 3.24238 16.7573C2.08301 15.5979 2.08301 13.7319 2.08301 9.99999Z" stroke="currentColor" stroke-width="1.5"/>
    <path d="M4.16602 17.5C7.80973 13.1458 11.8944 7.40338 17.9139 11.2853" stroke="currentColor" stroke-width="1.5"/>
</svg>