<svg xmlns="http://www.w3.org/2000/svg" width="20" height="20" viewBox="0 0 20 20" fill="none">
    <path d="M3.10326 9.59244C3.10326 9.59244 10.0491 6.75057 12.458 5.74994C13.3814 5.34969 16.5131 4.06882 16.5131 4.06882C16.5131 4.06882 17.9584 3.50855 17.838 4.86932C17.7978 5.42969 17.4766 7.39095 17.1554 9.51232C16.6736 12.5143 16.1517 15.7963 16.1517 15.7963C16.1517 15.7963 16.0714 16.717 15.3889 16.8771C14.7063 17.0372 13.5822 16.3167 13.3814 16.1566C13.2209 16.0365 10.3703 14.2353 9.32647 13.3548C9.04538 13.1147 8.72418 12.6343 9.36658 12.074C10.8119 10.7532 12.5384 9.11207 13.5822 8.07144C14.0639 7.59107 14.5458 6.47033 12.5384 7.8312C9.68778 9.79246 6.87732 11.6337 6.87732 11.6337C6.87732 11.6337 6.23502 12.034 5.03056 11.6737C3.82609 11.3135 2.42086 10.8332 2.42086 10.8332C2.42086 10.8332 1.45715 10.2327 3.10326 9.59244Z" stroke="currentColor" stroke-width="1.4"/>
</svg>