<svg xmlns="http://www.w3.org/2000/svg" width="20" height="20" viewBox="0 0 20 20" fill="none">
    <g clip-path="url(#clip0_2407_114275)">
        <path d="M16.6665 7.5C16.0039 4.1788 12.9272 1.66667 9.23255 1.66667C5.05441 1.66667 1.6665 4.87935 1.6665 8.84171C1.6665 10.7455 2.44833 12.4753 3.72363 13.759C4.00441 14.0417 4.19188 14.4278 4.11622 14.8253C3.99136 15.4751 3.70838 16.0812 3.29404 16.5864C4.38419 16.7874 5.51772 16.6064 6.48985 16.094C6.83349 15.9128 7.00531 15.8222 7.12656 15.8039C7.21144 15.791 7.322 15.803 7.49984 15.8335" stroke="currentColor" stroke-width="1.5" stroke-linecap="round" stroke-linejoin="round"/>
        <path d="M9.1665 13.5515C9.1665 15.9729 11.2188 17.9362 13.7498 17.9362C14.0474 17.9366 14.3442 17.9091 14.6365 17.8542C14.8469 17.8147 14.9521 17.7949 15.0256 17.8061C15.099 17.8173 15.2031 17.8727 15.4113 17.9834C16.0002 18.2966 16.6869 18.4072 17.3472 18.2843C17.0962 17.9756 16.9248 17.6052 16.8492 17.2081C16.8034 16.9652 16.9169 16.7292 17.087 16.5565C17.8596 15.772 18.3332 14.7149 18.3332 13.5515C18.3332 11.13 16.2809 9.16672 13.7498 9.16672C11.2188 9.16672 9.1665 11.13 9.1665 13.5515Z" stroke="currentColor" stroke-width="1.5" stroke-linejoin="round"/>
    </g>
    <defs>
        <clipPath id="clip0_2407_114275">
            <rect width="20" height="20" fill="white"/>
        </clipPath>
    </defs>
</svg>