<svg xmlns="http://www.w3.org/2000/svg" width="20" height="20" viewBox="0 0 20 20" fill="none">
    <path d="M13.7058 3.82841L14.9385 2.59564C15.6194 1.9148 16.7232 1.9148 17.4041 2.59564C18.0849 3.27648 18.0849 4.38034 17.4041 5.06118L16.1713 6.29395M13.7058 3.82841L9.10288 8.4313C8.18359 9.35058 7.72394 9.81023 7.41095 10.3703C7.09796 10.9305 6.78306 12.2531 6.48193 13.5178C7.74665 13.2167 9.06925 12.9018 9.62937 12.5888C10.1895 12.2758 10.6491 11.8161 11.5684 10.8968L16.1713 6.29395M13.7058 3.82841L16.1713 6.29395" stroke="currentColor" stroke-width="1.5" stroke-linecap="round" stroke-linejoin="round"/>
    <path d="M17.915 10C17.915 13.7312 17.915 15.5968 16.7558 16.7559C15.5967 17.915 13.7311 17.915 9.99996 17.915C6.26879 17.915 4.40321 17.915 3.24409 16.7559C2.08496 15.5968 2.08496 13.7312 2.08496 10C2.08496 6.26884 2.08496 4.40326 3.24409 3.24413C4.40321 2.08501 6.26879 2.08501 9.99996 2.08501" stroke="currentColor" stroke-width="1.5" stroke-linecap="round"/>
</svg>