<svg width="278" height="172" viewBox="0 0 278 172" fill="none" xmlns="http://www.w3.org/2000/svg">
<g clip-path="url(#clip0_8444_13053)">
<rect x="78" y="29" width="122" height="122" rx="29.3704" fill="url(#paint0_radial_8444_13053)"/>
<path d="M139.7 120.5C135.967 120.5 132.634 119.815 129.7 118.445C126.767 117.212 124.234 115.5 122.1 113.308V114.13C122.1 116.185 121.367 117.76 119.9 118.856C118.567 119.952 117.034 120.5 115.3 120.5C113.567 120.5 111.967 119.952 110.5 118.856C109.167 117.76 108.5 116.185 108.5 114.13L108.5 29H122.1V64.8143C124.234 62.6225 126.767 60.9102 129.7 59.6773C132.634 58.4444 135.967 57.8279 139.7 57.8279C145.567 57.8279 150.7 59.1978 155.1 61.9376C159.634 64.5404 163.167 68.1705 165.7 72.8281C168.234 77.4857 169.5 82.7598 169.5 88.6503C169.5 94.6775 168.234 100.157 165.7 105.089C163.167 109.883 159.634 113.651 155.1 116.39C150.7 119.13 145.567 120.5 139.7 120.5ZM138.5 107.76C143.7 107.76 147.9 106.048 151.1 102.623C154.3 99.0616 155.9 94.4038 155.9 88.6503C155.9 83.1707 154.3 78.7871 151.1 75.4994C147.9 72.2117 143.7 70.5678 138.5 70.5678C133.434 70.5678 129.434 72.2117 126.5 75.4994C123.567 78.7871 122.1 83.1707 122.1 88.6503C122.1 94.4038 123.567 99.0616 126.5 102.623C129.434 106.048 133.434 107.76 138.5 107.76Z" fill="white"/>
</g>
<rect x="77.4447" y="28.4447" width="123.111" height="123.111" rx="29.9256" stroke="white" stroke-opacity="0.1" stroke-width="1.11051"/>
<path opacity="0.8" fill-rule="evenodd" clip-rule="evenodd" d="M42.1226 66.0903C43.324 65.61 44.2292 64.5921 44.5658 63.3428L45.0906 61.3952C45.2375 60.8499 45.7169 60.4598 46.2807 60.4267C46.8445 60.3937 47.3662 60.7251 47.5758 61.2495L48.3246 63.1225C48.8048 64.3239 49.8227 65.2291 51.072 65.5657L53.0197 66.0905C53.565 66.2374 53.9551 66.7168 53.9882 67.2806C54.0212 67.8444 53.6898 68.3661 53.1654 68.5757L51.2924 69.3245C50.091 69.8047 49.1858 70.8227 48.8492 72.072L48.3244 74.0196C48.1775 74.5649 47.6981 74.955 47.1343 74.9881C46.5705 75.0211 46.0488 74.6897 45.8392 74.1653L45.0904 72.2923C44.6101 71.0909 43.5922 70.1857 42.3429 69.8491L40.3953 69.3243C39.85 69.1774 39.4599 68.698 39.4268 68.1342C39.3938 67.5704 39.7252 67.0487 40.2496 66.8391L42.1226 66.0903Z" fill="url(#paint1_linear_8444_13053)"/>
<path opacity="0.5" fill-rule="evenodd" clip-rule="evenodd" d="M232.777 128.9C234.065 128.773 235.218 128.048 235.889 126.942L236.936 125.217C237.229 124.735 237.798 124.494 238.349 124.619C238.9 124.744 239.308 125.208 239.364 125.77L239.561 127.778C239.687 129.065 240.413 130.218 241.519 130.89L243.243 131.936C243.726 132.229 243.967 132.798 243.841 133.349C243.716 133.9 243.252 134.308 242.69 134.364L240.683 134.561C239.395 134.687 238.242 135.413 237.571 136.519L236.524 138.243C236.231 138.726 235.662 138.967 235.111 138.841C234.56 138.716 234.152 138.252 234.097 137.69L233.899 135.683C233.773 134.395 233.048 133.242 231.942 132.571L230.217 131.524C229.735 131.231 229.493 130.662 229.619 130.111C229.744 129.561 230.208 129.152 230.77 129.097L232.777 128.9Z" fill="url(#paint2_linear_8444_13053)"/>
<defs>
<radialGradient id="paint0_radial_8444_13053" cx="0" cy="0" r="1" gradientUnits="userSpaceOnUse" gradientTransform="translate(206.405 29) rotate(177.875) scale(172.749 233.699)">
<stop offset="0.0224282" stop-color="#1444EE"/>
<stop offset="0.489616" stop-color="#071843"/>
<stop offset="0.806847" stop-color="#010612"/>
</radialGradient>
<linearGradient id="paint1_linear_8444_13053" x1="46.2807" y1="60.4267" x2="52" y2="91.5" gradientUnits="userSpaceOnUse">
<stop stop-color="white"/>
<stop offset="1" stop-color="white" stop-opacity="0"/>
</linearGradient>
<linearGradient id="paint2_linear_8444_13053" x1="238.349" y1="124.619" x2="235.183" y2="156.055" gradientUnits="userSpaceOnUse">
<stop stop-color="white"/>
<stop offset="1" stop-color="white" stop-opacity="0"/>
</linearGradient>
<clipPath id="clip0_8444_13053">
<rect x="78" y="29" width="122" height="122" rx="29.3704" fill="white"/>
</clipPath>
</defs>
</svg>
